<?xml version="1.0" standalone="no"?>
<!DOCTYPE svg PUBLIC "-//W3C//DTD SVG 20010904//EN"
 "http://www.w3.org/TR/2001/REC-SVG-20010904/DTD/svg10.dtd">
<svg version="1.0" xmlns="http://www.w3.org/2000/svg"
 width="932.000000pt" height="1284.000000pt" viewBox="0 0 932.000000 1284.000000"
 preserveAspectRatio="xMidYMid meet">

<g transform="translate(0.000000,1284.000000) scale(0.100000,-0.100000)"
fill="#000000" stroke="none">
<path d="M0 9995 c0 -2524 2 -2844 15 -2839 16 6 18 1 20 -56 0 -19 4 -46 8
-60 l8 -25 -25 28 -26 28 0 -615 c0 -399 4 -617 10 -621 13 -8 13 -115 0 -115
-16 0 -13 -417 3 -423 9 -4 9 -7 0 -18 -17 -17 -18 -140 -2 -137 18 5 21 -18
4 -35 -13 -14 -15 -112 -15 -861 0 -465 2 -846 4 -846 3 0 14 29 26 64 12 36
29 75 39 88 10 13 44 75 76 138 31 63 68 124 81 135 37 31 128 240 130 300 1
28 3 58 3 67 1 9 18 34 39 56 22 22 44 54 50 71 7 17 17 45 24 63 7 17 37 64
68 102 73 92 159 219 172 256 5 16 17 32 26 35 25 8 102 116 102 143 0 15 6
22 19 22 13 0 33 23 62 71 24 39 67 98 94 131 51 62 140 183 200 274 18 29 38
55 44 58 6 4 20 26 31 49 27 55 40 77 67 107 28 31 78 110 130 203 21 38 48
84 59 102 12 18 41 68 64 111 125 232 146 263 213 313 95 71 201 183 217 230
8 24 16 39 18 32 5 -15 22 -3 22 16 0 9 11 31 25 49 30 40 32 64 5 64 -13 0
-20 7 -20 18 0 15 7 18 41 15 l40 -3 -57 65 c-32 35 -80 76 -106 90 -44 24
-48 29 -48 64 0 20 5 42 11 48 7 7 -5 23 -40 52 -53 45 -82 97 -182 323 -28
65 -62 132 -75 150 -13 18 -45 62 -72 98 -76 105 -124 191 -242 435 -61 127
-126 259 -144 295 -39 75 -74 177 -106 305 -24 96 -78 222 -133 308 -81 126
-104 268 -72 447 36 204 80 321 135 360 17 12 39 38 50 59 16 31 55 72 118
122 23 19 101 50 170 68 37 9 87 32 111 49 24 18 49 32 54 32 6 0 18 6 26 14
28 23 132 53 231 65 98 11 206 17 535 26 105 3 212 10 238 15 26 6 76 10 110
10 34 0 102 9 150 20 263 58 597 64 882 16 189 -33 409 -94 514 -143 28 -14
42 -15 90 -5 103 22 118 18 241 -63 36 -23 99 -62 140 -86 41 -23 95 -57 120
-75 25 -17 65 -42 90 -54 25 -13 58 -33 73 -46 16 -13 36 -24 46 -24 19 0 71
-49 71 -68 0 -17 -27 -15 -34 3 -3 8 -12 15 -19 15 -8 0 -20 -7 -27 -15 -9
-10 -9 -15 -1 -15 19 0 12 -27 -9 -33 -13 -3 -24 1 -30 14 -6 10 -17 19 -24
19 -16 0 -46 32 -46 48 0 7 7 12 15 12 8 0 15 4 15 9 0 14 -50 19 -128 12
l-72 -6 20 -38 21 -38 -31 -29 c-30 -28 -33 -60 -4 -60 8 0 14 -5 14 -11 0 -6
-9 -8 -22 -3 -23 7 -23 7 1 -13 29 -24 23 -54 -17 -74 -34 -18 -70 -57 -127
-139 -25 -36 -64 -92 -88 -125 -38 -55 -109 -164 -232 -355 -52 -81 -105 -169
-105 -174 0 -3 -19 -37 -43 -78 -24 -40 -46 -80 -50 -88 -4 -8 -23 -42 -42
-75 -19 -33 -59 -107 -89 -165 -30 -58 -80 -152 -110 -210 -31 -58 -60 -114
-65 -125 -5 -11 -35 -67 -68 -125 -32 -59 -69 -130 -82 -159 -36 -85 -79 -161
-128 -223 -24 -32 -50 -68 -56 -81 -7 -12 -41 -62 -77 -111 -36 -48 -84 -114
-107 -146 -42 -56 -52 -80 -34 -80 4 0 20 -11 35 -25 18 -17 39 -25 61 -25 29
0 36 -4 41 -25 3 -14 11 -25 17 -25 7 0 29 -19 49 -41 27 -29 38 -51 38 -73 0
-17 7 -51 16 -75 15 -45 12 -148 -6 -196 -7 -19 -9 -18 -18 6 -6 16 -21 29
-37 33 -14 4 -23 11 -20 16 4 6 -1 17 -9 26 -9 8 -16 21 -16 28 0 8 -7 19 -16
26 -13 12 -15 8 -13 -31 3 -56 -20 -93 -75 -122 -33 -18 -56 -21 -121 -20 -68
1 -89 6 -140 32 -33 17 -74 45 -92 61 l-32 30 -49 -42 c-89 -78 -257 -192
-307 -208 -55 -17 -63 -27 -37 -46 12 -8 22 -21 22 -29 0 -8 9 -19 20 -25 11
-6 20 -16 20 -21 0 -12 47 -74 100 -132 19 -21 41 -49 50 -62 8 -13 42 -45 75
-72 33 -27 85 -72 115 -101 30 -28 61 -52 68 -52 6 0 12 -4 12 -9 0 -5 23 -32
50 -61 55 -57 70 -55 18 3 -18 19 -46 52 -63 72 -16 20 -45 54 -62 75 -18 20
-33 45 -33 54 0 9 -8 16 -20 16 -19 0 -40 27 -40 50 0 7 6 10 14 7 17 -7 36
33 36 78 0 19 5 37 10 40 15 10 12 37 -10 80 -21 42 -27 115 -9 115 6 0 9 8 7
18 -2 9 -7 15 -11 12 -5 -3 -15 6 -22 20 -14 25 -10 65 8 88 6 8 6 16 -1 25
-10 12 1 57 14 57 3 0 47 -20 98 -44 113 -54 213 -68 310 -42 40 10 64 12 72
5 6 -5 14 -40 16 -77 3 -52 9 -76 31 -107 15 -22 27 -49 28 -60 0 -20 0 -20
10 0 8 16 8 15 4 -8 -8 -40 3 -67 26 -67 25 0 24 -6 -6 -46 -14 -18 -25 -39
-25 -48 0 -22 19 -30 36 -15 18 15 26 7 30 -28 2 -15 9 -32 16 -38 8 -5 12
-18 10 -29 -2 -10 2 -29 8 -42 7 -12 10 -32 7 -44 -8 -32 9 -70 31 -70 11 0
30 -15 43 -34 13 -19 29 -32 36 -29 7 3 13 -2 13 -11 0 -8 9 -20 20 -26 15 -8
20 -21 20 -51 0 -56 23 -105 53 -113 31 -7 62 -53 58 -88 -2 -19 3 -28 18 -33
11 -3 21 -16 23 -28 2 -13 16 -29 36 -39 47 -23 48 -26 16 -38 -15 -6 -35 -17
-43 -23 -7 -7 -29 -16 -47 -22 l-34 -10 16 -30 c26 -50 -1 -135 -43 -135 -7 0
-13 -7 -13 -15 0 -9 -8 -19 -17 -22 -23 -8 -33 -23 -33 -49 0 -12 -10 -25 -24
-32 -20 -9 -27 -7 -47 14 -25 27 -39 31 -39 10 0 -17 50 -51 70 -48 12 2 12 1
2 -6 -10 -7 -8 -15 11 -38 13 -16 34 -55 47 -87 37 -95 130 -153 146 -92 6 23
11 25 55 24 l48 -2 -4 -51 c-2 -31 1 -54 8 -58 9 -5 9 -10 0 -19 -10 -10 -18
-10 -39 0 -32 14 -38 10 -30 -24 7 -27 69 -93 175 -185 35 -30 69 -61 77 -68
7 -7 41 -25 76 -40 57 -25 123 -59 167 -87 80 -51 108 -73 170 -135 68 -68 72
-76 86 -142 8 -39 21 -81 30 -94 21 -33 50 -115 75 -214 25 -104 70 -230 81
-230 4 0 10 -9 14 -20 3 -11 24 -39 46 -62 22 -24 63 -77 91 -118 28 -41 56
-80 62 -85 6 -6 16 -18 21 -27 6 -9 44 -67 86 -130 42 -62 95 -147 117 -188
43 -79 132 -279 162 -367 18 -51 24 -64 73 -173 43 -96 120 -333 168 -520 11
-41 28 -102 39 -135 36 -109 88 -289 101 -345 6 -30 20 -80 31 -110 10 -30 25
-83 33 -117 8 -34 42 -143 75 -242 81 -241 106 -330 120 -426 12 -85 68 -355
81 -392 l9 -23 275 0 276 0 -28 38 c-15 20 -31 39 -35 40 -5 2 -8 8 -8 14 0 9
-32 51 -87 113 -10 11 -29 29 -43 40 -26 20 -132 149 -162 195 -8 14 -25 36
-37 49 -11 13 -21 30 -21 37 0 7 -8 18 -18 23 -10 5 -24 22 -32 38 -8 15 -19
35 -25 43 -7 8 -17 29 -22 45 -6 17 -15 39 -19 50 -4 11 -13 38 -19 60 -53
178 -88 281 -96 283 -5 2 -9 12 -9 23 0 23 -44 161 -69 214 -11 23 -24 61 -31
85 -6 25 -20 72 -32 105 -35 104 -97 277 -123 350 -15 39 -32 90 -39 115 -7
25 -18 55 -23 65 -21 41 -52 144 -79 260 -14 66 -35 152 -46 190 -20 71 -52
192 -69 255 -5 19 -17 71 -27 115 -10 44 -21 87 -25 95 -9 23 -44 146 -65 235
-44 175 -166 546 -240 725 -22 52 -67 163 -101 245 -108 259 -223 475 -301
560 -28 32 -95 162 -133 260 -68 178 -157 328 -247 421 -17 16 -30 39 -30 50
0 31 85 169 117 189 15 10 39 28 53 40 14 13 53 38 87 55 59 31 67 32 160 30
54 -1 113 -3 131 -4 17 -2 32 0 32 4 0 3 29 12 64 19 73 14 123 5 190 -37 22
-14 72 -33 113 -42 74 -19 156 -59 231 -116 23 -17 69 -40 102 -50 62 -18 77
-32 145 -133 17 -24 49 -66 73 -92 29 -32 42 -56 42 -75 0 -47 -38 -186 -55
-203 -14 -15 -19 -14 -48 3 -18 10 -49 27 -69 38 -20 11 -42 26 -49 34 -6 8
-16 14 -22 14 -5 0 -24 17 -42 37 -43 50 -61 38 -36 -26 12 -32 15 -54 9 -65
-10 -17 -38 -22 -38 -6 0 6 5 10 11 10 6 0 9 10 7 22 -2 18 -10 23 -32 23 -38
0 -43 18 -11 39 l26 17 -21 30 c-12 16 -25 27 -30 24 -5 -3 -10 -1 -12 3 -5
15 -86 21 -91 8 -5 -13 14 -108 37 -186 25 -82 79 -339 131 -625 50 -273 106
-509 159 -660 19 -55 49 -143 66 -195 17 -52 40 -113 50 -135 10 -22 30 -83
44 -135 14 -52 46 -158 71 -235 25 -77 45 -148 45 -157 0 -10 10 -28 23 -40
22 -23 42 -94 71 -265 8 -44 28 -112 44 -151 17 -38 39 -104 51 -148 75 -281
111 -406 129 -440 32 -60 62 -129 62 -142 0 -7 31 -106 69 -220 132 -399 172
-538 212 -741 31 -163 75 -347 105 -441 9 -30 17 -70 17 -87 0 -18 3 -33 7
-33 6 0 22 -71 36 -152 l6 -38 78 0 79 0 -10 33 c-6 17 -12 42 -15 55 -27 132
-58 228 -97 302 -48 90 -56 123 -61 253 -4 92 5 132 16 77 4 -21 6 2 5 60 -2
94 -2 95 22 96 14 1 32 11 41 22 10 12 21 17 26 12 8 -7 74 -14 111 -11 10 1
33 51 33 72 0 13 -27 11 -50 -3 -16 -10 -22 -10 -32 3 -22 28 -75 42 -138 37
-70 -5 -68 -7 -99 132 -17 78 -27 109 -77 241 -11 28 -15 53 -10 65 6 12 10
15 13 7 8 -22 25 -14 21 10 -2 14 -10 22 -23 22 -30 0 -70 96 -124 300 -12 44
-26 89 -32 99 -21 36 -59 147 -59 169 0 19 5 17 43 -22 44 -45 95 -121 122
-181 35 -76 93 -270 105 -350 15 -95 23 -106 90 -116 25 -4 61 -15 80 -25 19
-11 38 -19 43 -19 23 0 158 -88 205 -134 49 -47 102 -128 102 -157 0 -7 13
-42 29 -78 25 -57 109 -316 167 -516 19 -65 56 -107 149 -170 72 -47 163 -140
255 -258 l21 -27 730 0 729 0 0 85 c0 49 -4 85 -10 85 -5 0 -12 11 -16 25 -3
14 -11 25 -18 25 -6 0 1 10 16 23 25 22 26 24 7 35 -10 7 -29 12 -43 12 -27 0
-48 20 -38 36 4 6 27 17 52 25 l45 14 0 590 0 590 -22 3 c-18 3 -22 11 -25 44
-2 34 -9 45 -33 59 -16 10 -38 18 -48 18 -11 1 -20 12 -24 31 -7 39 -27 33
-31 -9 -3 -31 -5 -32 -35 -26 -18 4 -36 11 -41 16 -6 5 -23 9 -38 9 -21 0 -28
5 -28 20 0 13 7 20 20 20 25 0 25 18 -1 49 -19 23 -20 23 -39 6 -17 -15 -24
-16 -46 -7 -23 11 -26 10 -35 -18 -6 -16 -19 -32 -28 -35 -13 -4 -16 -13 -13
-33 2 -19 -3 -33 -17 -46 -12 -11 -21 -30 -21 -43 0 -12 -4 -23 -10 -23 -16 0
-12 -36 5 -50 9 -7 12 -17 7 -22 -4 -4 -4 -28 2 -53 8 -36 15 -45 31 -45 12 0
26 5 33 12 8 8 12 8 12 1 0 -6 -7 -13 -15 -17 -8 -3 -15 -14 -15 -24 0 -10 -7
-27 -15 -38 -8 -10 -15 -27 -15 -36 0 -22 -16 -23 -36 -3 -13 12 -20 13 -47 1
-29 -11 -32 -17 -32 -56 0 -53 -17 -62 -50 -26 -31 34 -53 33 -57 -1 -3 -30
-35 -44 -48 -23 -13 20 -40 3 -40 -25 0 -45 -53 -19 -84 43 -9 17 -21 32 -26
32 -17 0 -10 24 20 68 16 24 31 48 33 55 9 25 15 0 8 -38 -7 -44 13 -75 49
-75 28 0 26 31 -5 81 -38 59 -12 80 49 40 33 -22 60 -15 71 19 8 25 33 26 51
3 10 -14 15 -15 25 -6 17 17 4 44 -17 36 -14 -5 -16 -2 -10 23 18 82 18 96 1
134 -11 25 -22 37 -31 33 -20 -7 -17 -26 6 -46 17 -14 18 -20 8 -42 -6 -14
-15 -25 -21 -25 -16 0 -46 44 -53 77 -3 17 -12 34 -20 37 -8 3 -14 15 -14 28
0 17 -3 19 -12 10 -39 -39 -52 14 -14 59 13 15 27 34 30 41 4 9 8 10 11 2 3
-6 12 -20 19 -30 13 -17 14 -16 9 9 -7 37 12 57 51 54 35 -2 43 18 13 37 -14
8 -20 8 -27 -4 -6 -9 -21 -14 -39 -12 -22 3 -31 -2 -36 -17 -7 -23 -32 -18
-53 11 -19 27 -49 23 -56 -8 -9 -33 -36 -28 -54 9 -12 25 -41 35 -77 27 -5 -1
-23 -2 -40 -2 -16 1 -35 -4 -42 -9 -7 -6 -16 -8 -20 -6 -5 3 -7 -10 -5 -30 3
-25 7 -32 15 -24 6 6 19 11 28 11 10 0 21 9 24 20 9 28 22 25 40 -10 9 -18 22
-29 32 -28 8 2 20 -4 26 -13 8 -12 4 -25 -18 -53 -30 -39 -51 -45 -70 -20 -13
19 -55 11 -55 -10 0 -7 15 -30 34 -50 28 -29 39 -34 57 -28 12 5 32 7 45 4 22
-4 114 -92 114 -109 0 -14 -35 -44 -43 -37 -3 3 -22 0 -41 -7 -34 -12 -37 -11
-67 17 l-31 29 -15 -22 c-16 -24 -47 -31 -58 -13 -3 6 -15 10 -26 10 -25 0
-41 42 -33 86 5 27 3 35 -12 41 -49 18 -47 67 2 79 24 6 26 10 21 47 -9 66
-67 104 -67 43 0 -12 -3 -26 -7 -30 -5 -4 -8 -24 -8 -44 0 -34 -3 -38 -37 -46
-30 -8 -41 -6 -56 7 -23 21 -31 21 -51 3 -29 -24 -77 -27 -96 -6 -10 11 -23
20 -30 20 -24 0 -48 38 -42 67 22 118 30 153 37 153 20 0 70 54 70 75 0 13 5
27 10 30 6 3 10 14 10 23 1 22 45 72 65 72 10 0 15 -9 15 -28 0 -35 16 -52 51
-52 15 0 40 -7 55 -15 16 -8 39 -15 52 -15 12 0 32 -6 43 -12 17 -10 23 -10
26 0 6 15 34 16 68 0 22 -10 28 -9 36 3 8 12 11 11 20 -3 14 -25 30 -23 88 15
44 27 51 36 48 59 -3 22 1 28 15 28 22 0 24 16 3 24 -10 3 -14 16 -13 38 2 25
-1 33 -16 36 -10 2 -23 -3 -28 -12 -13 -24 -25 -20 -37 14 -12 35 -47 43 -38
10 4 -17 2 -20 -14 -15 -12 4 -19 2 -19 -7 0 -8 -4 -6 -11 5 -5 9 -17 17 -24
17 -8 0 -14 3 -14 8 6 35 -23 45 -41 13 -17 -33 -11 -51 25 -72 59 -35 42 -77
-32 -77 -41 -1 -43 1 -49 35 -4 22 -2 44 5 54 16 27 14 39 -9 39 -24 0 -25 8
-5 34 20 27 20 76 0 76 -14 0 -25 -17 -38 -61 -7 -23 -64 -12 -83 16 -14 21
-13 27 6 65 29 57 20 119 -22 150 -39 29 -36 65 6 65 23 1 32 7 39 28 5 15 15
27 23 27 8 0 26 7 39 16 13 9 28 13 33 10 10 -6 68 20 77 35 10 15 45 10 45
-6 0 -22 36 -39 44 -20 9 24 35 17 42 -10 8 -33 -2 -43 -26 -27 -16 10 -20 8
-25 -8 -7 -22 -45 -28 -45 -6 0 7 -7 19 -15 26 -11 9 -22 8 -52 -7 -50 -24
-62 -46 -40 -71 22 -24 22 -35 -2 -27 -14 4 -24 -3 -41 -31 -18 -32 -20 -41
-9 -61 10 -19 21 -23 57 -23 38 0 49 -5 79 -36 33 -35 35 -36 88 -29 29 3 59
12 65 20 6 8 18 11 26 8 12 -5 13 -1 3 21 -17 36 2 57 29 33 24 -22 30 -21 34
6 3 19 8 22 43 19 41 -4 85 -25 85 -42 0 -5 -11 -20 -25 -34 -36 -36 -32 -53
12 -58 30 -4 42 0 62 20 20 20 27 22 46 12 18 -9 27 -9 43 1 19 12 24 11 39
-5 13 -13 15 -20 5 -23 -6 -3 -12 -14 -12 -25 0 -26 24 -18 28 10 2 12 8 22
13 22 16 0 80 -38 111 -65 26 -24 36 -26 72 -20 22 3 50 6 61 6 10 0 25 5 31
10 9 7 19 7 33 -1 15 -7 27 -8 40 0 22 11 81 14 81 3 0 -4 -10 -17 -22 -30
-24 -26 -18 -38 24 -48 l28 -7 0 226 c0 190 -2 226 -14 226 -25 0 -28 19 -7
46 17 21 21 41 21 97 0 64 -1 69 -14 51 -22 -29 -28 -12 -8 21 16 28 17 331
20 5038 l2 5007 -4660 0 -4660 0 0 -2845z m282 1337 c-19 -6 -44 6 -37 18 4 7
14 6 28 -2 14 -7 17 -13 9 -16z m91 -84 c6 -23 1 -38 -13 -38 -12 0 -20 28
-14 45 9 22 21 18 27 -7z m902 -688 c3 -5 1 -10 -4 -10 -6 0 -11 5 -11 10 0 6
2 10 4 10 3 0 8 -4 11 -10z m-952 -776 c14 -5 13 -8 -1 -25 -21 -24 -32 -24
-32 -1 0 28 9 36 33 26z m-219 -128 c13 34 29 -12 21 -62 -8 -53 -20 -57 -29
-8 -6 29 -10 34 -27 29 -25 -8 -35 16 -19 46 l12 22 18 -23 c16 -21 17 -21 24
-4z m-56 -143 c-3 -41 -23 -55 -33 -24 -9 28 3 61 21 61 11 0 14 -9 12 -37z
m5120 -816 c7 -6 12 -22 12 -36 -4 -48 0 -60 20 -71 19 -10 20 -8 19 32 -3 66
31 115 48 71 5 -14 8 -13 14 5 24 65 46 -16 26 -98 l-13 -55 39 -37 c47 -46
57 -47 57 -9 0 20 -6 30 -20 34 -11 3 -20 9 -19 14 1 4 -1 25 -6 46 -8 40 -7
42 53 84 25 17 43 10 24 -9 -21 -21 -13 -27 24 -21 30 5 36 3 41 -15 3 -12 9
-19 14 -17 29 19 71 -94 49 -135 -5 -10 -15 -42 -21 -70 -6 -28 -17 -54 -25
-57 -8 -3 -14 -14 -14 -25 0 -12 -11 -23 -30 -29 -27 -10 -30 -15 -30 -52 0
-26 -3 -37 -8 -29 -5 7 -16 10 -27 6 -16 -6 -17 -3 -11 29 4 24 3 37 -4 37 -5
0 -10 -7 -10 -15 0 -20 -43 -29 -71 -15 -18 10 -23 10 -31 -4 -5 -9 -16 -16
-24 -16 -8 0 -17 -6 -20 -14 -9 -25 -73 -48 -122 -45 -47 2 -95 -11 -106 -29
-3 -6 -25 -8 -48 -6 -28 3 -47 -1 -59 -12 -11 -10 -19 -12 -24 -5 -12 21 -89
0 -192 -51 -62 -32 -103 -58 -106 -70 -3 -10 0 -18 6 -18 7 0 22 -3 35 -6 18
-5 22 -2 22 15 0 28 41 38 72 17 12 -9 37 -16 56 -16 18 0 43 -6 55 -14 12 -7
55 -19 95 -26 40 -7 71 -18 69 -23 -5 -15 -140 -96 -160 -96 -11 -1 -33 -7
-50 -15 -18 -8 -81 -34 -142 -57 -60 -23 -117 -48 -125 -54 -8 -7 -23 -15 -33
-18 -10 -4 -15 -11 -12 -17 9 -15 76 -12 109 5 35 18 73 19 79 3 3 -7 6 -3 6
8 1 30 21 43 49 33 12 -5 22 -13 22 -18 0 -20 34 -21 56 0 12 11 28 18 34 14
6 -4 27 -9 47 -11 47 -6 49 -9 33 -40 -12 -21 -12 -27 0 -34 8 -5 19 -3 27 6
21 20 23 18 23 -24 0 -37 -1 -38 -35 -38 -29 0 -35 4 -35 21 0 36 -14 47 -43
36 -15 -6 -27 -8 -27 -5 0 3 -12 -4 -26 -15 -21 -17 -42 -21 -98 -22 -93 -1
-51 -15 74 -25 56 -4 94 -12 101 -20 7 -9 32 -14 64 -14 l53 0 4 -137 c5 -163
17 -200 83 -238 23 -14 51 -25 63 -25 12 0 22 -4 22 -10 0 -5 -4 -10 -10 -10
-5 0 -12 -12 -16 -27 -3 -16 -17 -61 -30 -101 -13 -40 -26 -96 -30 -125 -7
-48 -6 -51 9 -38 10 7 17 19 17 25 0 7 11 34 24 62 13 27 31 91 41 142 17 86
22 98 63 143 71 79 150 216 178 309 7 24 12 46 9 48 -5 6 -49 -67 -96 -158
-22 -43 -47 -84 -55 -91 -13 -11 -14 -5 -9 42 4 30 8 60 10 67 3 6 1 12 -4 12
-4 0 -11 24 -14 54 -3 30 -11 65 -18 77 l-12 23 -15 -22 c-19 -28 -40 -28 -51
1 -7 19 -9 16 -16 -21 -4 -27 -11 -40 -16 -35 -12 12 16 142 41 198 11 22 27
67 36 100 18 60 61 115 90 115 8 0 14 6 14 13 0 8 11 24 25 37 l26 24 24 -29
c27 -33 30 -53 15 -104 -12 -44 -6 -50 24 -22 13 12 26 19 29 14 3 -4 1 -42
-3 -83 -5 -41 -9 -100 -9 -130 l1 -55 19 75 c10 41 28 116 40 165 12 50 26 94
31 100 6 6 27 -9 60 -45 71 -76 168 -189 198 -230 14 -18 39 -51 57 -72 34
-41 47 -84 48 -157 0 -39 -5 -47 -42 -81 -36 -31 -98 -61 -182 -86 -11 -4 -12
-7 -3 -16 14 -14 16 -68 3 -68 -5 0 -15 13 -23 30 l-14 30 -18 -36 c-16 -35
-18 -36 -31 -18 -23 30 -37 0 -30 -60 7 -60 13 -70 29 -57 9 8 18 0 35 -29 23
-41 28 -44 69 -40 42 3 22 -31 -26 -45 -23 -7 -49 -18 -56 -24 -8 -7 -40 -25
-72 -42 -33 -16 -79 -42 -104 -56 -61 -35 -140 -56 -140 -38 0 24 12 45 25 45
11 0 31 88 21 97 -8 8 -36 -10 -42 -29 -3 -12 -11 -17 -20 -14 -12 5 -13 -3
-8 -46 6 -41 4 -50 -7 -46 -8 3 -14 17 -14 31 1 15 -2 27 -5 27 -16 0 -49 -33
-52 -53 -2 -12 -10 -22 -18 -22 -10 0 -18 -18 -26 -60 -6 -33 -16 -71 -23 -84
-12 -21 -11 -23 4 -17 16 6 17 0 13 -61 -3 -38 -8 -76 -13 -85 -5 -14 -3 -18
11 -18 23 0 61 56 65 96 2 16 11 38 19 49 9 11 22 34 29 52 25 63 69 85 176
87 61 1 107 22 83 37 -20 13 -2 21 44 21 83 -1 88 -2 82 -16 -3 -7 7 -31 21
-52 36 -53 39 -54 31 -11 -4 21 -3 37 3 37 14 0 32 -59 25 -86 -4 -14 -1 -31
7 -40 12 -14 9 -20 -20 -43 -64 -51 -131 -123 -131 -143 0 -13 5 -18 14 -15 8
3 20 0 26 -8 6 -7 19 -11 29 -8 11 3 21 -2 25 -12 7 -20 -11 -58 -25 -50 -5 4
-9 2 -9 -3 0 -6 6 -12 13 -15 12 -4 13 -26 8 -132 -1 -22 -8 -33 -27 -42 -14
-6 -31 -10 -38 -7 -12 5 -46 -55 -46 -81 0 -8 -5 -15 -11 -15 -7 0 -9 11 -6
28 12 57 12 65 2 68 -5 2 -23 -23 -39 -56 -16 -33 -35 -60 -42 -60 -7 0 -18
-8 -23 -17 -10 -16 -10 -16 -11 3 0 11 4 24 8 30 5 5 13 21 20 36 11 26 10 27
-8 16 -11 -7 -20 -21 -20 -30 0 -10 -9 -27 -20 -38 l-20 -20 0 35 c0 24 -5 35
-15 35 -9 0 -15 -9 -15 -24 0 -33 -16 -41 -25 -13 -6 20 -8 19 -23 -15 -18
-40 -29 -47 -38 -24 -4 11 -17 13 -55 9 -29 -3 -54 -1 -62 5 -9 8 -31 9 -66 3
-84 -13 -101 -3 -41 25 36 17 50 29 50 44 0 24 -31 27 -54 5 -35 -36 -120 -46
-168 -21 -24 13 -28 12 -43 -7 -13 -18 -15 -18 -11 -4 3 10 3 30 0 44 -6 22
-10 24 -39 19 -21 -4 -35 -2 -37 4 -2 8 -14 9 -33 4 l-30 -8 33 -8 c19 -5 30
-13 26 -19 -3 -6 -16 -8 -27 -5 -12 3 -27 0 -34 -6 -19 -15 11 -48 38 -41 10
3 19 0 19 -6 0 -6 -8 -11 -17 -11 -10 0 -28 -3 -40 -6 -19 -5 -22 -1 -25 27
-3 31 -6 34 -43 36 -144 10 -140 9 -143 33 -3 20 0 22 22 18 31 -6 31 -4 9 22
-23 27 -33 25 -71 -9 -29 -27 -32 -28 -32 -10 0 11 5 29 11 41 16 30 2 34 -26
8 -22 -20 -25 -21 -25 -6 0 22 -24 16 -28 -7 -2 -10 3 -17 12 -17 18 0 21 -15
7 -25 -6 -3 -15 3 -20 12 -10 17 -12 17 -30 -4 -23 -28 -51 -30 -51 -5 0 27
-9 33 -31 19 -28 -17 -61 16 -48 50 13 35 12 35 -22 28 l-32 -7 7 52 c5 35 4
50 -4 45 -5 -3 -10 -15 -10 -26 0 -32 -30 -22 -46 16 -8 19 -19 35 -24 35 -5
0 -19 10 -31 23 l-21 22 6 -31 c5 -23 2 -37 -13 -55 -19 -24 -20 -24 -34 -4
-13 17 -13 23 -1 47 8 15 14 34 14 43 0 9 7 27 16 41 16 24 14 41 -3 31 -5 -3
-18 -24 -29 -46 -10 -23 -24 -41 -29 -41 -31 0 -45 57 -26 104 11 27 25 3 17
-29 -9 -34 12 -42 24 -9 8 19 8 37 1 57 -6 16 -8 33 -5 38 3 5 2 9 -3 9 -15 0
-53 -70 -58 -107 -15 -119 -17 -125 -31 -106 -22 29 -18 119 7 153 31 42 25
153 -10 175 -6 3 -11 13 -11 21 0 8 -11 32 -25 52 -18 26 -25 50 -25 83 0 27
-6 51 -14 58 -7 6 -16 32 -20 58 -5 40 -3 50 16 70 26 27 29 83 8 133 -7 16
-10 39 -7 50 3 13 0 20 -9 20 -8 0 -14 -10 -14 -26 0 -14 -4 -23 -10 -19 -17
11 -11 50 11 68 35 31 49 15 49 -55 0 -46 6 -70 19 -87 l19 -24 6 30 c4 16 2
42 -4 57 -15 41 -13 96 4 96 8 0 18 4 21 10 8 14 -36 92 -74 130 -17 18 -31
40 -30 49 1 9 1 23 0 31 -1 13 -2 13 -11 0 -7 -12 -12 -12 -22 -2 -9 9 -10 19
-1 43 7 17 9 37 7 44 -8 19 29 38 44 23 8 -8 14 -4 23 15 20 45 46 54 152 55
126 1 127 1 127 10 0 7 -48 12 -152 16 -37 1 -41 9 -33 56 7 39 31 71 130 172
60 61 105 157 105 223 0 17 5 36 11 42 6 6 12 24 13 39 2 33 59 123 148 237
18 22 18 22 12 -10 -4 -19 -2 -33 3 -33 14 0 40 32 44 54 5 24 29 34 29 12 0
-20 29 -21 58 0 21 14 25 13 80 -30 32 -25 65 -46 73 -46 8 0 26 14 41 30 31
36 77 41 85 10 8 -29 21 -25 15 5 -2 14 3 36 12 50 9 13 16 30 16 37 0 23 53
88 71 88 11 0 19 -4 19 -10 0 -16 15 -12 61 20 39 26 45 28 56 14 7 -9 19 -14
27 -11 16 6 26 -12 26 -49 0 -22 9 -28 37 -25 6 1 14 -3 18 -9 3 -5 19 -10 35
-10 32 0 41 15 44 81 6 89 31 119 74 86z m-520 -182 c3 -25 2 -27 -12 -16 -19
16 -22 55 -3 49 6 -3 14 -17 15 -33z m1207 -55 c3 -5 -1 -10 -9 -10 -9 0 -16
5 -16 10 0 6 4 10 9 10 6 0 13 -4 16 -10z m-135 -120 c0 -5 -4 -10 -9 -10 -6
0 -13 5 -16 10 -3 6 1 10 9 10 9 0 16 -4 16 -10z m665 -100 c3 -5 1 -10 -4
-10 -6 0 -11 5 -11 10 0 6 2 10 4 10 3 0 8 -4 11 -10z m-979 -82 c-12 -50 -22
-59 -54 -51 -12 3 -29 0 -37 -7 -9 -7 -19 -10 -23 -6 -4 4 6 17 21 28 15 11
34 33 43 49 10 19 22 29 38 29 22 0 23 -2 12 -42z m1944 -100 c16 -29 30 -59
30 -65 0 -19 -24 -16 -43 5 -20 21 -48 98 -40 106 13 13 24 4 53 -46z m-3337
-30 c-8 -43 -23 -60 -23 -26 0 32 9 58 21 58 5 0 6 -15 2 -32z m1912 -142
c-29 -49 -55 -76 -55 -57 0 7 -5 9 -11 5 -9 -5 -10 4 -5 32 9 46 59 130 75
127 6 -2 12 3 13 10 1 6 3 -7 5 -30 3 -32 -2 -53 -22 -87z m-822 39 c-17 -23
-33 -32 -33 -18 0 10 32 43 42 43 5 0 1 -11 -9 -25z m1662 -105 c3 -5 -1 -10
-9 -10 -8 0 -18 5 -21 10 -3 6 1 10 9 10 8 0 18 -4 21 -10z m-1979 -59 c-11
-18 -36 -13 -36 7 0 10 3 22 7 26 10 10 37 -20 29 -33z m-3896 -66 c0 -8 -4
-15 -10 -15 -5 0 -10 7 -10 15 0 8 5 15 10 15 6 0 10 -7 10 -15z m6190 -15 c0
-13 -11 -13 -30 0 -12 8 -11 10 8 10 12 0 22 -4 22 -10z m-6210 -240 c0 -5 -7
-7 -15 -4 -8 4 -12 10 -9 15 6 11 24 2 24 -11z m6388 -46 c20 -14 33 -42 13
-30 -13 8 -34 -21 -27 -39 9 -26 -10 -16 -22 10 -13 29 -15 58 -5 68 9 10 16
9 41 -9z m-108 -81 c-1 -21 -13 -53 -21 -53 -10 0 -12 43 -2 53 9 9 23 9 23 0z
m-7039 -49 c18 -17 20 -16 33 1 13 18 14 18 25 -3 6 -12 15 -21 19 -20 8 3 64
-32 74 -47 9 -12 10 -77 2 -99 -8 -20 -48 -21 -63 -2 -9 11 -9 19 0 34 17 27
4 59 -16 42 -15 -12 -20 -5 -40 55 -6 19 -7 19 -19 3 -16 -22 -32 -23 -39 -4
-4 9 -14 12 -25 9 -15 -3 -22 3 -30 26 l-11 31 36 -4 c19 -3 44 -13 54 -22z
m7034 -64 c-3 -5 -12 -7 -20 -4 -11 5 -12 10 -2 25 10 16 13 16 20 4 4 -8 5
-19 2 -25z m685 5 c10 -12 10 -19 1 -28 -9 -9 -14 -9 -21 3 -22 34 -4 54 20
25z m250 -35 c8 -5 11 -10 5 -10 -5 0 -17 5 -25 10 -8 5 -10 10 -5 10 6 0 17
-5 25 -10z m-113 -22 c-3 -8 -6 -5 -6 6 -1 11 2 17 5 13 3 -3 4 -12 1 -19z
m-4344 -18 c3 -11 1 -20 -4 -20 -5 0 -9 9 -9 20 0 11 2 20 4 20 2 0 6 -9 9
-20z m-3473 -39 c0 -31 -24 -59 -35 -41 -9 14 14 82 26 75 5 -4 9 -19 9 -34z
m270 -111 c9 -4 16 -24 18 -54 3 -39 7 -48 28 -56 13 -5 24 -15 24 -21 0 -7 9
-9 25 -5 21 5 25 3 25 -16 0 -12 -7 -30 -17 -40 -9 -10 -14 -20 -11 -23 9 -10
37 6 40 23 2 11 6 13 10 6 4 -6 -2 -27 -13 -48 -11 -20 -22 -57 -26 -82 -7
-51 -24 -54 -34 -5 -10 47 -25 60 -44 35 -14 -19 -14 -18 -15 4 0 12 6 22 14
22 18 0 27 23 15 41 -5 8 -9 32 -9 55 0 39 -1 40 -30 36 -31 -4 -31 -4 -44 73
-3 17 -8 43 -12 58 -6 28 -6 28 17 16 13 -6 31 -15 39 -19z m-87 -35 c4 -14
-1 -25 -18 -38 l-25 -18 0 34 c0 55 30 70 43 22z m451 10 c3 -9 0 -15 -9 -15
-8 0 -15 7 -15 15 0 8 4 15 9 15 5 0 11 -7 15 -15z m2854 -9 c3 -12 -1 -17
-10 -14 -7 3 -15 13 -16 22 -3 12 1 17 10 14 7 -3 15 -13 16 -22z m-58 -17 c0
-12 -4 -18 -11 -13 -14 8 -29 -14 -29 -43 0 -12 -5 -25 -11 -29 -8 -4 -9 4 -4
27 13 62 55 107 55 58z m114 -153 c-9 -81 -22 -109 -51 -102 -26 7 -29 -4 -11
-34 11 -17 10 -25 -2 -47 -22 -39 -45 -43 -36 -7 18 71 19 94 3 94 -8 0 -18
-7 -21 -16 -8 -22 -26 -7 -26 22 0 14 6 24 14 24 18 0 26 45 15 84 -5 17 -9
42 -9 55 0 20 2 22 16 10 19 -15 49 -73 58 -113 6 -23 9 -27 17 -15 21 34 -2
129 -31 129 -12 0 -20 7 -20 16 0 10 -6 14 -15 10 -8 -3 -15 -1 -15 4 0 15 38
12 43 -2 2 -8 9 -5 17 9 14 22 15 21 36 -24 18 -36 22 -57 18 -97z m2016 49
c0 -14 14 -19 48 -18 6 1 12 -8 12 -19 0 -15 -3 -18 -13 -10 -9 8 -12 3 -12
-21 0 -24 -4 -32 -17 -31 -10 1 -18 -2 -18 -7 0 -5 -5 -9 -11 -9 -7 0 -9 12
-4 36 5 27 2 41 -10 54 -9 10 -14 24 -10 29 9 16 35 13 35 -4z m-510 -61 c0
-8 -5 -12 -10 -9 -6 4 -8 11 -5 16 9 14 15 11 15 -7z m-4979 -96 c8 -15 8 -23
-1 -32 -8 -8 -16 -5 -30 13 -20 27 -17 53 6 44 8 -3 19 -14 25 -25z m8209 16
c0 -14 -3 -14 -15 -4 -8 7 -15 14 -15 16 0 2 7 4 15 4 8 0 15 -7 15 -16z
m-4682 -36 c30 -51 39 -149 11 -132 -5 3 -9 0 -9 -5 0 -6 -5 -11 -12 -11 -6 0
-4 7 5 18 22 24 21 40 -3 93 -31 69 -26 93 8 37z m2825 20 c6 -19 -3 -38 -18
-38 -18 0 -26 15 -19 34 7 19 31 21 37 4z m1967 -8 c12 -8 11 -10 -7 -10 -13
0 -23 5 -23 10 0 13 11 13 30 0z m-2823 -42 c-3 -8 -6 -5 -6 6 -1 11 2 17 5
13 3 -3 4 -12 1 -19z m-2004 -33 c6 -37 1 -65 -13 -65 -10 0 -21 75 -14 94 9
24 21 11 27 -29z m-2278 4 c4 -11 4 -23 0 -27 -7 -7 -25 17 -25 36 0 20 18 14
25 -9z m-741 -65 c25 -10 19 -22 -9 -16 -14 2 -25 8 -25 13 0 10 12 11 34 3z
m3033 -116 c-3 -7 -5 -2 -5 12 0 14 2 19 5 13 2 -7 2 -19 0 -25z m3059 -15
c-11 -11 -19 6 -11 24 8 17 8 17 12 0 3 -10 2 -21 -1 -24z m89 16 c4 -5 4 -22
0 -37 -7 -25 -8 -25 -15 -7 -17 41 -4 76 15 44z m-5703 -94 c27 -45 24 -54
-12 -35 -25 14 -41 44 -34 64 9 24 17 20 46 -29z m-742 20 c11 -13 10 -24 0
-58 -8 -23 -15 -43 -16 -45 -1 -2 -14 9 -28 23 -26 26 -35 55 -16 55 6 0 10 9
10 20 0 24 32 27 50 5z m-250 -19 c0 -8 -4 -18 -10 -21 -5 -3 -10 -4 -10 -1 0
2 -3 11 -6 20 -4 11 -1 16 10 16 9 0 16 -6 16 -14z m3840 -79 c0 -21 -4 -23
-32 -19 l-32 5 23 18 c31 25 41 24 41 -4z m-3472 -88 c13 -40 16 -128 5 -130
-80 -12 -93 -4 -93 62 0 47 10 63 40 64 12 0 14 11 12 50 -2 50 -2 50 11 20 8
-16 19 -46 25 -66z m-424 -46 c3 -10 11 -26 18 -35 17 -24 -4 -68 -33 -68 -46
0 -87 82 -54 107 26 18 62 16 69 -4z m8571 7 c3 -5 19 -7 35 -3 23 4 30 2 30
-10 0 -19 -29 -37 -59 -37 -11 0 -24 -8 -30 -17 -8 -16 -11 -15 -20 10 -14 36
-14 40 1 55 14 14 35 16 43 2z m-7951 -55 c-3 -14 -13 -25 -21 -25 -11 0 -13
7 -8 33 4 17 10 36 13 41 9 16 23 -23 16 -49z m8063 -21 c-6 -7 -37 7 -37 17
0 4 7 6 15 3 11 -4 15 1 16 17 2 20 3 19 6 -4 3 -16 3 -31 0 -33z m-117 -70
c0 -19 -16 -18 -24 2 -11 27 -7 37 9 24 8 -7 15 -19 15 -26z m-8399 -5 c22
-16 29 -28 29 -55 0 -19 -5 -34 -11 -34 -18 0 -38 32 -39 61 0 14 -5 30 -12
37 -19 19 1 14 33 -9z m555 -6 c-10 -10 -19 5 -10 18 6 11 8 11 12 0 2 -7 1
-15 -2 -18z m-667 -34 c21 -34 18 -71 -5 -62 -8 3 -21 0 -29 -7 -17 -14 -21
-60 -5 -60 6 0 10 7 10 15 0 8 2 15 4 15 2 0 11 3 20 6 21 8 21 -40 1 -76 -8
-14 -14 -37 -15 -52 0 -19 -12 -36 -40 -58 -23 -18 -43 -30 -47 -27 -3 3 6 30
21 58 32 65 32 68 1 98 -22 20 -25 32 -25 91 0 73 14 98 30 56 12 -34 19 -33
31 4 14 38 25 38 48 -1z m3482 22 c5 -25 6 -77 2 -84 -11 -17 -31 16 -31 52
-1 26 4 38 14 38 8 0 14 -3 15 -6z m4955 -31 c23 0 16 -15 -8 -17 -13 -1 -34
-3 -47 -5 -13 -2 -26 3 -28 10 -3 6 2 12 11 12 9 0 16 4 16 9 0 15 35 18 38 4
2 -7 10 -13 18 -13z m-8228 -7 c-3 -25 1 -28 30 -31 24 -2 36 -10 44 -28 15
-32 -3 -54 -26 -35 -8 7 -24 10 -34 7 -15 -5 -21 -1 -26 16 -9 37 -7 98 4 98
6 0 9 -12 8 -27z m255 -13 c-3 -12 -8 -19 -11 -16 -5 6 5 36 12 36 2 0 2 -9
-1 -20z m-73 -55 c0 -8 -4 -17 -10 -20 -6 -4 -10 5 -10 20 0 15 4 24 10 20 6
-3 10 -12 10 -20z m8050 9 c0 -8 -5 -12 -10 -9 -6 4 -8 11 -5 16 9 14 15 11
15 -7z m-1110 -4 c0 -5 -2 -10 -4 -10 -3 0 -8 5 -11 10 -3 6 -1 10 4 10 6 0
11 -4 11 -10z m-6546 -52 c5 -21 15 -38 21 -38 18 0 36 -69 24 -92 -13 -24
-29 -23 -29 2 0 11 -11 27 -25 36 -19 12 -23 22 -19 40 5 21 3 24 -19 24 -32
0 -49 27 -35 53 7 13 18 17 41 15 28 -3 33 -8 41 -40z m7796 38 c0 -3 -4 -8
-10 -11 -5 -3 -10 -1 -10 4 0 6 5 11 10 11 6 0 10 -2 10 -4z m-5050 -32 c0
-10 6 -14 15 -10 22 8 45 -3 38 -20 -7 -20 -30 -17 -53 6 -22 22 -26 40 -10
40 6 0 10 -7 10 -16z m-3080 2 c0 -3 -4 -8 -10 -11 -5 -3 -10 -1 -10 4 0 6 5
11 10 11 6 0 10 -2 10 -4z m119 -68 c-6 -11 -16 -17 -22 -15 -15 5 -12 54 5
74 11 13 13 12 20 -12 4 -16 3 -37 -3 -47z m334 37 c9 -13 13 -26 9 -29 -13
-8 -52 23 -52 40 0 22 23 16 43 -11z m6852 -5 c8 -13 -11 -13 -36 1 -11 5 -17
14 -14 20 7 10 39 -4 50 -21z m816 -7 c-8 -15 -10 -15 -11 -2 0 17 10 32 18
25 2 -3 -1 -13 -7 -23z m-8361 -14 c0 -10 -4 -19 -10 -19 -5 0 -10 12 -10 26
0 14 4 23 10 19 6 -3 10 -15 10 -26z m7090 0 c0 -11 -4 -17 -10 -14 -5 3 -10
15 -10 26 0 11 5 17 10 14 6 -3 10 -15 10 -26z m125 17 c11 -7 39 -17 63 -21
24 -4 51 -15 60 -25 11 -12 23 -16 30 -11 22 13 61 0 90 -30 21 -23 33 -28 55
-23 18 4 43 -2 73 -16 49 -24 65 -47 43 -61 -8 -5 -15 -4 -17 1 -2 6 -11 10
-19 10 -26 0 4 -28 38 -35 16 -4 29 -13 29 -21 0 -10 -6 -11 -22 -5 -52 21
-89 44 -98 62 -7 13 -21 19 -44 19 -19 0 -39 7 -46 15 -7 8 -20 15 -30 15 -10
0 -23 7 -30 15 -19 23 -33 18 -26 -10 8 -31 -21 -48 -36 -21 -5 9 -13 14 -17
11 -5 -2 -11 8 -14 24 -4 21 -15 32 -39 42 -47 18 -86 20 -92 3 -3 -8 -19 -14
-36 -14 -39 0 -41 31 -2 65 31 28 59 31 87 11z m-6745 -17 c0 -5 -4 -9 -10 -9
-5 0 -10 7 -10 16 0 8 5 12 10 9 6 -3 10 -10 10 -16z m7120 11 c0 -5 -7 -7
-15 -4 -8 4 -15 8 -15 10 0 2 7 4 15 4 8 0 15 -4 15 -10z m395 -10 c13 -41
-21 -55 -44 -19 -11 18 -11 23 1 30 21 14 36 10 43 -11z m-8285 3 c0 -5 -4
-15 -10 -23 -11 -18 -25 -7 -17 15 6 15 27 21 27 8z m365 -56 c-16 -42 -16
-47 -1 -69 11 -15 14 -33 10 -54 -3 -18 -1 -40 4 -51 7 -12 7 -25 1 -34 -7
-12 -9 -11 -9 2 0 9 -8 27 -18 40 -11 13 -22 50 -26 82 -5 47 -2 67 14 104 15
34 23 44 31 36 8 -8 7 -24 -6 -56z m7655 1 c0 -6 7 -7 15 -4 20 7 32 -21 16
-37 -10 -9 -15 -8 -22 6 -6 9 -21 17 -34 17 -21 0 -25 5 -25 30 0 30 0 30 25
14 14 -9 25 -21 25 -26z m384 10 c20 -28 6 -44 -23 -29 -24 13 -29 51 -7 51 8
0 22 -10 30 -22z m-7855 -34 c20 -20 23 -34 25 -94 1 -59 4 -71 20 -76 21 -7
36 7 63 56 12 21 27 35 39 35 37 0 10 -94 -46 -157 -30 -36 -40 -35 -40 2 0
25 -4 30 -25 30 -17 0 -25 6 -25 17 0 12 -7 8 -22 -14 -29 -41 -54 -42 -76 -3
-18 32 -27 36 -37 20 -3 -5 -11 -10 -17 -10 -6 0 -8 21 -3 60 5 42 3 65 -5 75
-10 12 -9 15 8 15 20 0 82 53 82 70 0 14 32 -1 59 -26z m519 -20 c-4 -23 -26
-30 -34 -10 -8 20 15 51 29 37 5 -5 7 -17 5 -27z m7082 -14 c0 -14 -7 -20 -24
-20 -27 0 -42 26 -25 46 15 18 49 0 49 -26z m-7016 3 c8 -20 -6 -36 -27 -31
-11 2 -12 9 -6 26 10 26 24 29 33 5z m-218 -71 c-22 -23 -29 -10 -9 18 11 16
18 19 21 11 2 -7 -3 -20 -12 -29z m7172 22 c6 -2 12 -16 12 -31 l0 -28 19 25
c16 20 21 22 35 11 21 -17 21 -77 1 -85 -8 -3 -25 -1 -38 4 -12 5 -41 14 -65
20 -31 8 -45 18 -52 36 -5 13 -17 27 -25 30 -8 4 -15 12 -15 20 0 11 12 13 58
8 31 -3 63 -7 70 -10z m-8108 -35 c0 -17 -40 -79 -51 -79 -16 0 -10 37 12 64
21 27 39 34 39 15z m8355 -9 c3 -5 1 -10 -4 -10 -6 0 -11 5 -11 10 0 6 2 10 4
10 3 0 8 -4 11 -10z m-671 -52 c-1 -24 -2 -47 -3 -53 -1 -5 -10 5 -21 23 -11
17 -27 32 -35 32 -8 0 -15 5 -15 11 0 6 9 9 20 6 14 -3 24 1 31 14 15 29 25
15 23 -33z m-6902 10 c-15 -15 -24 -6 -16 16 5 12 10 14 17 7 8 -8 8 -14 -1
-23z m6835 -84 c5 -15 -28 -27 -40 -15 -5 5 -6 14 -2 21 8 13 37 9 42 -6z
m431 -2 c2 -7 -6 -12 -17 -12 -21 0 -27 11 -14 24 9 9 26 2 31 -12z m-7415
-46 c8 -20 -30 -66 -54 -66 -28 0 -24 35 7 59 31 25 40 26 47 7z m-310 -16 c5
-19 10 -20 56 -14 l51 7 0 -51 c0 -55 -35 -128 -73 -151 -18 -12 -18 -10 -12
21 4 18 12 38 17 45 17 21 4 57 -24 71 -16 7 -28 19 -28 27 0 8 -5 17 -10 20
-13 8 -40 -55 -40 -93 0 -35 -16 -50 -50 -47 -31 2 -37 26 -13 51 16 16 16 17
1 11 -10 -3 -21 -1 -25 7 -5 8 -17 15 -28 18 -11 2 -20 10 -20 18 0 12 11 14
51 12 49 -4 53 -2 79 32 30 40 60 47 68 16z m385 -5 c-9 -10 -43 -9 -46 0 -4
12 42 25 47 13 1 -5 1 -11 -1 -13z m6852 -5 c0 -5 -6 -10 -14 -10 -8 0 -18 5
-21 10 -3 6 3 10 14 10 12 0 21 -4 21 -10z m-7051 -13 c8 -10 7 -17 -1 -25
-19 -19 -28 -14 -28 13 0 27 12 32 29 12z m7508 -9 c-3 -8 -6 -5 -6 6 -1 11 2
17 5 13 3 -3 4 -12 1 -19z m-7982 -46 c-28 -41 -33 -82 -10 -82 8 0 15 4 15 9
0 13 37 24 50 16 7 -4 3 -19 -10 -40 -11 -18 -18 -39 -15 -46 2 -8 -4 -25 -14
-39 -16 -20 -21 -22 -35 -11 -9 7 -16 28 -16 47 0 18 -7 39 -15 48 -20 20 -19
43 5 73 11 14 20 32 20 39 0 15 31 35 42 28 4 -3 -3 -22 -17 -42z m6190 22 c0
-10 -8 -20 -17 -22 -18 -3 -26 27 -11 42 12 11 28 0 28 -20z m123 5 c12 -5 22
-13 22 -19 0 -5 7 -10 15 -10 8 0 19 -9 25 -21 7 -12 18 -18 26 -15 10 4 21
-5 32 -24 9 -16 20 -30 25 -30 4 0 7 -7 7 -15 0 -8 -4 -15 -9 -15 -21 0 -110
46 -148 76 -47 38 -67 43 -58 15 8 -27 -12 -36 -25 -12 -8 15 -7 30 5 57 15
37 16 38 83 13z m1596 -51 c5 -21 3 -28 -8 -28 -22 0 -28 17 -14 39 14 23 13
24 22 -11z m-7374 4 c0 -10 -22 -32 -32 -32 -5 0 -3 9 4 20 13 20 28 27 28 12z
m-413 -44 c-3 -7 -5 -2 -5 12 0 14 2 19 5 13 2 -7 2 -19 0 -25z m7676 -35 c3
-5 8 -23 12 -40 6 -30 5 -33 -18 -33 -32 0 -51 23 -43 55 6 24 39 35 49 18z
m-7563 -85 c47 17 50 16 50 -18 0 -22 -12 -42 -45 -76 -25 -25 -49 -43 -54
-40 -21 14 -33 65 -22 97 9 26 8 35 -4 49 -8 9 -12 20 -8 24 4 3 16 -6 28 -20
20 -25 24 -26 55 -16z m220 10 c0 -29 -2 -31 -15 -17 -9 9 -13 23 -9 32 10 28
24 19 24 -15z m5910 17 c0 -8 -4 -15 -10 -15 -5 0 -10 7 -10 15 0 8 5 15 10
15 6 0 10 -7 10 -15z m-6277 -17 c3 -10 7 -10 19 -1 22 19 26 7 14 -38 -7 -29
-7 -45 1 -58 9 -14 8 -29 -4 -64 -16 -48 -33 -62 -64 -52 -19 6 -26 25 -10 25
15 0 42 62 35 82 -7 22 -24 24 -24 3 0 -29 -15 -15 -28 25 -17 54 -16 57 16
74 34 19 39 19 45 4z m253 -44 c-4 -14 -9 -24 -12 -21 -3 2 -2 17 2 31 3 15 9
25 11 22 3 -3 2 -17 -1 -32z m8098 -85 c-9 -10 -20 -16 -24 -14 -12 7 2 59 19
72 13 10 17 8 19 -14 2 -13 -4 -33 -14 -44z m-7944 -27 c0 -30 -29 -41 -46
-18 -17 24 -9 41 21 41 19 0 25 -5 25 -23z m7125 8 c3 -5 -1 -10 -9 -10 -9 0
-16 5 -16 10 0 6 4 10 9 10 6 0 13 -4 16 -10z m-85 -9 c0 -10 -30 -24 -37 -17
-3 3 -2 9 2 15 8 13 35 15 35 2z m643 -45 c6 -15 -18 -42 -26 -29 -16 30 -15
43 2 43 10 0 21 -6 24 -14z m-7783 -3 c0 -5 -4 -15 -10 -23 -11 -18 -25 -7
-17 15 6 15 27 21 27 8z m7940 -22 c0 -25 -14 -71 -21 -71 -5 0 -9 18 -9 40 0
29 4 40 15 40 8 0 15 -4 15 -9z m-7814 -63 c-3 -18 -9 -63 -12 -100 -4 -38
-10 -68 -14 -68 -12 0 -20 27 -20 64 0 24 -7 38 -31 55 -24 18 -28 25 -18 37
6 8 17 14 24 14 7 0 18 7 25 15 7 8 21 15 32 15 17 0 19 -5 14 -32z m7714 16
c0 -8 -4 -12 -10 -9 -5 3 -10 10 -10 16 0 5 5 9 10 9 6 0 10 -7 10 -16z m-712
-68 c3 -12 -1 -17 -10 -14 -7 3 -15 13 -16 22 -3 12 1 17 10 14 7 -3 15 -13
16 -22z m-7139 -23 c0 -34 -1 -36 -11 -16 -6 12 -8 29 -5 37 11 27 17 18 16
-21z m7771 11 c0 -8 -4 -12 -10 -9 -5 3 -10 10 -10 16 0 5 5 9 10 9 6 0 10 -7
10 -16z m-8030 -38 c0 -16 -28 -42 -36 -33 -3 3 -3 15 1 26 7 23 35 29 35 7z
m8240 -10 c0 -8 -4 -17 -9 -21 -12 -7 -24 12 -16 25 9 15 25 12 25 -4z m-176
-22 c8 -32 -1 -64 -19 -64 -16 0 -25 22 -25 61 0 39 35 41 44 3z m-114 -9 c0
-8 -2 -15 -4 -15 -2 0 -6 7 -10 15 -3 8 -1 15 4 15 6 0 10 -7 10 -15z m-2483
-53 c7 -26 29 -128 48 -227 49 -253 73 -371 91 -440 28 -104 96 -319 107 -332
6 -9 6 -13 -1 -13 -13 0 -77 84 -116 151 -66 116 -107 319 -110 552 0 31 -3
57 -7 57 -3 0 -5 23 -5 51 1 28 -2 53 -6 55 -4 3 -8 15 -8 27 0 26 -6 80 -9
87 -1 3 -4 25 -7 49 -5 55 6 46 23 -17z m1973 2 c0 -11 9 -29 19 -38 21 -19
34 -56 20 -56 -5 0 -14 12 -20 28 -6 15 -22 39 -36 54 -22 23 -24 30 -13 43
16 19 30 4 30 -31z m-7223 -11 c-3 -10 -5 -4 -5 12 0 17 2 24 5 18 2 -7 2 -21
0 -30z m7982 -7 c-28 -33 -32 -32 -45 2 -10 27 -10 28 16 24 16 -2 31 2 36 9
5 9 9 9 11 2 2 -6 -6 -23 -18 -37z m-8305 12 c-8 -28 -12 -33 -20 -25 -9 8 6
47 17 47 6 0 7 -10 3 -22z m7394 10 c18 -18 14 -38 -8 -38 -15 0 -20 7 -20 25
0 27 9 32 28 13z m822 -7 c0 -17 -18 -21 -24 -6 -3 9 0 15 9 15 8 0 15 -4 15
-9z m-30 -99 c0 -13 -12 -22 -22 -16 -10 6 -1 24 13 24 5 0 9 -4 9 -8z m72
-34 c-5 -7 -13 -28 -17 -45 -9 -45 -23 -50 -53 -20 l-26 26 27 10 c15 6 30 18
33 26 4 8 15 15 26 15 15 0 18 -3 10 -12z m-8275 -40 c-3 -7 -5 -2 -5 12 0 14
2 19 5 13 2 -7 2 -19 0 -25z m299 -15 c-5 -12 -10 -13 -18 -5 -8 8 -8 15 3 28
15 18 25 4 15 -23z m7432 -13 c3 -33 -12 -55 -32 -47 -16 6 -23 57 -9 71 14
14 38 0 41 -24z m412 23 c0 -5 -7 -17 -15 -27 -15 -20 -15 -20 -15 0 0 12 3
24 7 27 9 9 23 9 23 0z m380 -23 c0 -5 -5 -10 -11 -10 -5 0 -7 5 -4 10 3 6 8
10 11 10 2 0 4 -4 4 -10z m-8520 -23 c0 -23 -17 -47 -32 -47 -10 0 -11 54 -1
63 14 15 33 6 33 -16z m7160 4 c0 -11 -9 -23 -21 -26 -32 -10 -37 4 -9 25 31
24 30 24 30 1z m945 -31 c-3 -5 -11 -10 -16 -10 -6 0 -7 5 -4 10 3 6 11 10 16
10 6 0 7 -4 4 -10z m105 -14 c0 -24 -15 -26 -28 -5 -11 16 -9 19 8 19 11 0 20
-6 20 -14z m-24 -37 c3 -6 -3 -23 -15 -37 -12 -15 -26 -37 -33 -49 -6 -13 -17
-23 -25 -23 -8 0 -22 -13 -31 -30 -9 -16 -23 -30 -29 -30 -15 0 -17 16 -3 25
6 3 10 22 10 41 0 27 5 36 23 43 12 5 32 23 45 40 23 32 46 40 58 20z m-8118
-25 c2 -15 -4 -23 -20 -27 -28 -8 -32 -4 -24 28 8 32 39 31 44 -1z m6996 -49
c-7 -18 -14 -18 -38 0 -19 14 -18 15 12 15 24 0 30 -4 26 -15z m-6962 -20 c0
-5 -5 -11 -11 -13 -6 -2 -11 4 -11 13 0 9 5 15 11 13 6 -2 11 -8 11 -13z m-26
-92 c-11 -11 -17 4 -9 23 7 18 8 18 11 1 2 -10 1 -21 -2 -24z m6896 15 c-7 -7
-12 -8 -12 -2 0 14 12 26 19 19 2 -3 -1 -11 -7 -17z m-6772 -17 c-12 -43 -30
-72 -41 -66 -14 9 -11 20 14 59 27 43 38 46 27 7z m7690 -3 c0 -5 -8 -20 -17
-31 -29 -35 -131 -24 -109 12 4 6 18 11 31 11 13 0 26 4 29 8 8 13 66 13 66 0z
m-930 -20 c-1 -14 -34 -58 -44 -58 -8 0 -8 34 0 54 7 19 44 22 44 4z m1600
-25 c0 -19 -3 -24 -10 -17 -6 6 -8 18 -4 27 9 24 14 21 14 -10z m-2785 -133
c20 -63 62 -186 91 -274 81 -237 128 -426 105 -426 -15 0 -29 31 -37 81 -8 56
-31 141 -54 199 -10 25 -25 72 -35 105 -9 33 -22 71 -29 85 -7 14 -21 57 -31
95 -10 39 -29 108 -41 154 -24 85 -32 141 -15 111 5 -8 25 -67 46 -130z m1068
110 c-3 -11 -9 -20 -14 -20 -10 0 -12 24 -2 33 13 13 21 7 16 -13z m963 -34
c9 -22 -10 -99 -25 -104 -11 -4 -12 3 -7 29 4 19 8 46 8 62 1 29 15 37 24 13z
m218 -42 c-10 -21 -19 -33 -21 -27 -5 14 29 90 34 76 2 -7 -4 -29 -13 -49z
m-1474 -70 c0 -17 -22 -14 -28 4 -2 7 3 12 12 12 9 0 16 -7 16 -16z m1391 -33
c-7 -12 -16 -21 -21 -21 -15 0 -12 48 3 53 20 7 30 -9 18 -32z m-1661 3 c0 -8
-7 -14 -15 -14 -15 0 -21 21 -9 33 10 9 24 -2 24 -19z m195 -14 c8 -13 -57
-42 -68 -31 -4 4 -5 15 -1 24 7 19 59 24 69 7z m225 -55 c0 -2 -20 -3 -45 -2
-37 2 -43 4 -29 14 11 8 24 9 45 1 16 -5 29 -11 29 -13z m1213 5 c-3 -11 -12
-20 -19 -20 -17 0 -18 12 -2 28 18 18 27 15 21 -8z m-273 1 c0 -6 -4 -13 -10
-16 -5 -3 -10 -15 -10 -27 0 -11 -14 -37 -30 -57 -17 -20 -35 -42 -41 -49 -14
-17 -43 -11 -47 8 -1 8 8 20 20 25 18 8 24 20 28 55 4 35 10 47 30 57 30 15
60 17 60 4z m30 -66 c0 -15 -6 -25 -14 -25 -22 0 -30 19 -16 35 18 22 30 18
30 -10z m-190 -31 c0 -8 -4 -14 -10 -14 -5 0 -10 9 -10 21 0 11 5 17 10 14 6
-3 10 -13 10 -21z m1105 -26 c-31 -24 -31 -34 -4 -49 25 -13 39 1 39 39 0 26
15 29 24 6 10 -26 -18 -59 -59 -71 -32 -10 -42 -9 -76 9 -21 11 -39 23 -39 27
0 17 44 47 84 57 53 13 63 8 31 -18z m-1310 12 c-3 -5 -10 -10 -16 -10 -5 0
-9 5 -9 10 0 6 7 10 16 10 8 0 12 -4 9 -10z m-291 -41 c-3 -5 -10 -7 -15 -3
-5 3 -7 10 -3 15 3 5 10 7 15 3 5 -3 7 -10 3 -15z m2106 -3 c0 -17 -14 -29
-23 -20 -8 8 3 34 14 34 5 0 9 -6 9 -14z m-780 -15 c0 -24 -12 -32 -30 -21
-11 7 -11 11 -1 24 18 22 31 20 31 -3z m650 15 c0 -11 -19 -15 -25 -6 -3 5 1
10 9 10 9 0 16 -2 16 -4z m-720 -38 c0 -7 -4 -19 -9 -26 -6 -10 -10 -8 -14 10
-6 23 -7 22 -36 -12 -22 -27 -32 -32 -41 -24 -15 15 -4 51 18 57 37 10 82 7
82 -5z m156 -9 c9 -16 -12 -33 -31 -25 -14 5 -15 9 -5 21 15 18 26 19 36 4z
m-1186 -29 c0 -5 -4 -10 -10 -10 -5 0 -10 5 -10 10 0 6 5 10 10 10 6 0 10 -4
10 -10z m456 -39 c-9 -14 -43 -14 -51 -1 -3 5 -1 19 6 31 l11 21 20 -20 c11
-11 17 -25 14 -31z m-308 -23 c5 -24 -49 -70 -65 -56 -18 14 -16 38 4 60 20
23 56 20 61 -4z m232 -13 c20 0 25 -5 26 -25 3 -43 -20 -58 -84 -56 -50 1 -57
4 -60 23 -4 28 68 90 83 71 6 -7 21 -13 35 -13z m-130 -27 c0 -19 -15 -24 -24
-10 -3 5 -2 19 1 31 4 17 8 19 14 9 5 -7 9 -21 9 -30z m1040 17 c0 -8 -9 -15
-20 -15 -11 0 -20 7 -20 15 0 8 9 15 20 15 11 0 20 -7 20 -15z m-381 -29 c15
-18 -5 -26 -62 -26 -23 0 -55 -7 -71 -15 -37 -20 -46 -19 -46 5 0 19 33 33
105 43 56 8 63 7 74 -7z m291 -11 c0 -8 -4 -15 -10 -15 -5 0 -10 7 -10 15 0 8
5 15 10 15 6 0 10 -7 10 -15z m-2129 -8 c-1 -4 -1 -14 -1 -22 0 -8 -4 -15 -10
-15 -5 0 -10 12 -10 26 0 14 5 24 11 22 6 -2 10 -7 10 -11z m1155 -44 c-7 -17
-8 -17 -22 1 -8 11 -14 28 -14 38 0 18 1 18 21 -1 15 -13 19 -26 15 -38z
m-496 43 c0 -3 -4 -8 -10 -11 -5 -3 -10 -1 -10 4 0 6 5 11 10 11 6 0 10 -2 10
-4z m382 -66 c-1 -33 -19 -63 -32 -55 -12 7 -40 65 -40 82 0 7 10 18 23 22 30
12 50 -9 49 -49z m358 41 c0 -6 -4 -12 -10 -16 -5 -3 -7 -12 -4 -19 7 -18 -9
-28 -30 -20 -20 8 -20 23 1 46 17 19 43 24 43 9z m990 -11 c0 -5 -14 -10 -30
-10 -22 0 -33 -6 -41 -22 -5 -13 -17 -34 -25 -48 -10 -16 -13 -39 -10 -66 5
-40 5 -40 -25 -36 -20 3 -37 -2 -52 -15 -24 -21 -73 -53 -82 -53 -14 0 -2 29
20 48 26 23 26 42 0 42 -7 0 -15 10 -17 22 -3 20 -12 24 -90 34 -48 6 -95 14
-104 18 -9 3 -23 1 -30 -5 -17 -14 -34 -3 -34 21 0 18 6 19 78 15 143 -8 159
-10 174 -23 15 -12 48 -7 48 8 0 4 8 10 18 14 9 3 51 19 92 35 81 31 110 37
110 21z m-1310 -30 c0 -5 -2 -10 -4 -10 -3 0 -8 5 -11 10 -3 6 -1 10 4 10 6 0
11 -4 11 -10z m124 -15 c3 -8 18 -15 34 -15 24 0 30 -6 45 -47 15 -41 15 -48
2 -62 -8 -9 -12 -26 -9 -37 7 -27 -71 -93 -88 -76 -16 16 -2 57 32 91 l30 30
-24 25 c-13 14 -33 26 -45 26 -16 0 -21 6 -21 24 0 50 30 77 44 41z m-584 -16
c0 -11 -4 -17 -10 -14 -5 3 -10 13 -10 21 0 8 5 14 10 14 6 0 10 -9 10 -21z
m1181 -3 c-25 -27 -51 -24 -51 5 0 15 7 19 37 19 l36 0 -22 -24z m-681 -37 c0
-6 -4 -7 -10 -4 -5 3 -10 11 -10 16 0 6 5 7 10 4 6 -3 10 -11 10 -16z m-686 2
c3 -4 3 -11 0 -14 -8 -8 -34 3 -34 14 0 11 27 12 34 0z m-67 -27 c8 -23 -21
-43 -59 -41 -31 2 -54 27 -25 27 8 0 20 7 27 15 17 20 49 19 57 -1z m991 -6
c2 -9 -5 -18 -14 -22 -22 -9 -27 -2 -19 24 7 23 28 22 33 -2z m-1771 -20 c-3
-8 -6 -5 -6 6 -1 11 2 17 5 13 3 -3 4 -12 1 -19z m2483 7 c10 -13 9 -15 -8
-15 -15 0 -20 5 -16 15 4 8 7 15 9 15 1 0 8 -7 15 -15z m-283 -15 c4 -23 -24
-53 -42 -47 -18 8 -20 53 -2 60 20 9 42 3 44 -13z m-639 -2 c18 -18 14 -46 -8
-58 -12 -6 -20 -21 -20 -36 0 -30 -26 -42 -46 -22 -12 12 -12 17 6 36 12 13
20 35 20 57 0 27 4 35 18 35 10 0 23 -5 30 -12z m1772 8 c0 -11 -19 -15 -25
-6 -3 5 1 10 9 10 9 0 16 -2 16 -4z m-910 -105 c-9 -17 -20 -21 -63 -21 -55 0
-77 12 -77 42 0 24 21 23 63 -2 39 -23 63 -18 74 13 6 18 8 19 11 5 2 -9 -2
-26 -8 -37z m868 16 c2 -15 -1 -27 -5 -27 -15 0 -33 23 -33 43 0 30 34 16 38
-16z m-2048 -1 c0 -18 -39 -31 -52 -18 -15 15 0 32 28 32 14 0 24 -6 24 -14z
m210 -7 c13 -23 3 -29 -58 -34 -49 -4 -92 2 -92 14 1 13 66 38 103 38 26 0 40
-5 47 -18z m705 -19 c-10 -15 -45 -12 -45 5 0 22 33 37 43 19 4 -8 5 -19 2
-24z m337 -5 c-5 -51 -7 -53 -36 -26 -32 31 -25 73 13 69 24 -3 26 -6 23 -43z
m-1579 1 c6 -16 -16 -40 -26 -29 -4 3 -7 15 -7 25 0 21 25 24 33 4z m2277 -1
c0 -8 -4 -15 -10 -15 -5 0 -10 7 -10 15 0 8 5 15 10 15 6 0 10 -7 10 -15z
m-3040 -60 c0 -23 -3 -27 -10 -15 -5 8 -10 29 -10 45 0 23 3 27 10 15 5 -8 10
-28 10 -45z m2967 16 c13 -22 20 -47 16 -60 -3 -12 -1 -21 6 -21 16 0 14 -25
-4 -40 -13 -11 -15 -7 -15 30 0 32 -6 48 -24 65 -17 16 -23 30 -19 44 8 30 15
26 40 -18z m-2007 14 c10 -12 9 -16 -3 -21 -19 -7 -60 14 -52 27 9 14 41 11
55 -6z m-150 -46 c0 -31 -16 -40 -22 -11 -6 24 3 53 13 46 5 -3 9 -18 9 -35z
m70 6 c0 -8 -7 -15 -15 -15 -8 0 -15 7 -15 15 0 8 7 15 15 15 8 0 15 -7 15
-15z m-120 -4 c0 -6 -12 -16 -27 -23 -32 -15 -46 -68 -19 -68 9 0 16 -4 16 -8
0 -5 -14 -9 -31 -9 l-31 0 7 51 c3 27 8 53 11 58 7 11 74 10 74 -1z m1762 -1
c11 0 24 -15 33 -37 19 -46 6 -64 -26 -34 -29 27 -40 26 -69 -4 -26 -28 -61
-32 -80 -10 -17 21 4 45 40 45 22 0 29 6 34 26 6 21 11 25 29 20 12 -3 30 -6
39 -6z m-1496 -35 c-7 -18 -26 -20 -26 -2 0 18 24 41 28 27 2 -6 1 -17 -2 -25z
m1719 25 c3 -5 -1 -10 -9 -10 -8 0 -18 5 -21 10 -3 6 1 10 9 10 8 0 18 -4 21
-10z m-1305 -26 c0 -8 -4 -12 -10 -9 -5 3 -10 10 -10 16 0 5 5 9 10 9 6 0 10
-7 10 -16z m1490 -35 c0 -5 -7 -9 -15 -9 -9 0 -15 9 -15 21 0 18 2 19 15 9 8
-7 15 -16 15 -21z m-590 -4 c-7 -9 -15 -13 -17 -11 -7 7 7 26 19 26 6 0 6 -6
-2 -15z m336 -15 c31 0 62 -26 48 -40 -9 -9 -17 -8 -33 2 -17 10 -25 10 -41 1
-16 -11 -21 -9 -34 9 -19 26 -11 42 18 34 11 -3 30 -6 42 -6z m-382 -17 c8 -8
13 -9 41 -12 20 -1 20 -51 0 -51 -8 0 -20 9 -27 19 -9 15 -19 18 -45 14 -34
-6 -42 4 -21 25 13 13 41 16 52 5z m-1644 -33 c0 -4 -10 -15 -21 -26 -12 -10
-25 -29 -30 -42 -5 -13 -13 -20 -19 -17 -5 3 -21 -6 -34 -22 -13 -15 -27 -25
-31 -21 -9 9 14 50 25 43 12 -7 40 35 40 61 0 11 3 23 6 27 8 8 64 6 64 -3z
m380 -10 c0 -20 -5 -23 -50 -24 -18 -1 -24 -6 -22 -18 1 -9 -7 -22 -19 -29
-20 -10 -21 -9 -14 7 4 11 10 29 13 42 3 16 9 21 22 17 9 -3 23 1 30 10 18 21
40 19 40 -5z m1844 -27 c3 -10 13 -29 21 -43 18 -31 20 -73 3 -68 -7 3 -17 14
-23 26 -5 12 -15 22 -22 22 -13 0 -34 59 -26 73 8 14 41 7 47 -10z m201 -33
c0 -13 -5 -25 -11 -27 -13 -4 -23 25 -16 45 7 21 27 8 27 -18z m-37 -32 c29
-29 2 -66 -39 -53 -24 8 -25 41 -1 54 22 13 26 13 40 -1z m-530 -46 c2 -14 -2
-22 -11 -22 -17 0 -30 27 -21 41 9 16 29 4 32 -19z m-701 -48 c3 -8 0 -33 -7
-54 -11 -33 -10 -46 3 -86 9 -27 13 -52 11 -56 -8 -12 -52 -9 -56 4 -2 6 -14
-5 -26 -25 -20 -34 -40 -46 -55 -31 -3 3 3 20 13 37 13 21 16 37 10 46 -11 19
-33 2 -50 -39 -14 -35 -41 -41 -37 -9 1 12 -4 24 -10 26 -8 3 -13 -5 -14 -21
-1 -14 -3 -30 -4 -36 -1 -5 -3 -16 -4 -22 -1 -9 -6 -7 -15 5 -18 24 -23 22
-29 -13 -5 -22 -17 -35 -49 -51 -24 -12 -54 -30 -67 -40 -18 -14 -27 -16 -37
-8 -11 9 -9 17 8 43 12 18 34 40 49 48 15 9 35 29 45 45 10 15 37 47 62 70 39
36 44 47 44 82 -1 43 6 48 41 30 12 -7 30 -13 42 -14 11 -1 23 -3 28 -4 4 0 7
-12 7 -26 0 -16 6 -25 15 -25 8 0 15 7 15 15 0 7 8 19 18 25 12 8 13 13 5 16
-27 11 -7 84 23 84 8 0 17 -7 21 -16z m93 -18 c0 -7 -6 -19 -14 -25 -19 -16
-32 5 -16 24 16 19 30 19 30 1z m-1336 -45 c-42 -45 -83 -41 -61 6 8 18 17 23
33 20 14 -2 25 2 29 11 4 11 9 12 17 4 8 -8 3 -19 -18 -41z m1464 22 c5 -17
-26 -29 -40 -15 -6 6 -7 15 -3 22 9 14 37 9 43 -7z m657 -26 c0 -29 7 -42 38
-69 47 -43 49 -62 5 -53 -18 4 -40 13 -49 21 -8 8 -23 14 -32 14 -21 0 -22 19
-3 26 10 4 13 15 9 39 -3 19 -3 41 1 50 11 28 31 10 31 -28z m-754 -35 c25
-21 20 -59 -6 -48 -8 3 -22 9 -30 12 -10 4 -15 0 -15 -13 0 -19 -18 -43 -32
-43 -4 0 -8 16 -8 35 0 28 4 35 19 35 11 0 23 9 26 20 8 25 17 25 46 2z m454
-4 c12 -26 35 -36 35 -14 0 26 21 29 46 5 30 -28 31 -63 3 -109 -19 -30 -23
-32 -33 -17 -10 12 -16 13 -24 5 -14 -14 -40 5 -44 34 -2 12 -11 26 -20 32
-14 8 -20 6 -31 -8 -8 -11 -19 -16 -25 -12 -21 13 -13 35 14 42 16 4 30 17 36
35 12 34 30 37 43 7z m-2279 -30 c6 -18 14 -41 18 -50 5 -11 1 -20 -14 -28
-28 -15 -30 -12 -35 46 -6 71 12 89 31 32z m91 -95 c3 -27 2 -45 -2 -41 -13
12 -54 142 -48 152 10 15 43 -60 50 -111z m2379 72 c7 -18 -14 -47 -27 -39 -5
3 -9 16 -9 30 0 27 27 34 36 9z m-2262 -90 c-4 -8 -8 -15 -10 -15 -2 0 -4 7
-4 15 0 8 4 15 10 15 5 0 7 -7 4 -15z m1376 -221 c0 -8 -4 -12 -10 -9 -5 3
-10 10 -10 16 0 5 5 9 10 9 6 0 10 -7 10 -16z m100 -29 c0 -8 -4 -15 -10 -15
-5 0 -10 7 -10 15 0 8 5 15 10 15 6 0 10 -7 10 -15z m440 -105 c0 -5 -5 -10
-11 -10 -5 0 -7 5 -4 10 3 6 8 10 11 10 2 0 4 -4 4 -10z m-20 -90 c0 -11 -4
-20 -9 -20 -5 0 -7 9 -4 20 3 11 7 20 9 20 2 0 4 -9 4 -20z m-892 -78 c2 -14
-2 -22 -11 -22 -19 0 -40 26 -32 40 11 18 40 6 43 -18z m161 -118 c-15 -18
-22 -13 -13 10 3 9 10 13 16 10 5 -3 4 -12 -3 -20z m897 -38 c22 -17 11 -35
-13 -20 -19 12 -29 34 -16 34 5 0 18 -6 29 -14z m-1170 -63 c-11 -11 -19 6
-11 24 8 17 8 17 12 0 3 -10 2 -21 -1 -24z m-152 4 c8 -14 8 -20 -4 -27 -19
-11 -51 16 -43 36 7 19 33 14 47 -9z m280 10 c16 -12 16 -14 -8 -40 -30 -32
-42 -34 -51 -7 -15 48 19 76 59 47z m-224 -1 c0 -3 -4 -8 -10 -11 -5 -3 -10
-1 -10 4 0 6 5 11 10 11 6 0 10 -2 10 -4z m1725 -164 c-10 -27 -23 -1 -20 41
4 57 6 58 16 12 5 -21 7 -45 4 -53z m-2040 58 c3 -5 15 -10 26 -10 23 0 24 -8
2 -32 -21 -24 -40 -23 -53 3 -18 32 6 69 25 39z m475 -5 c0 -8 -7 -15 -16 -15
-14 0 -14 3 -4 15 7 8 14 15 16 15 2 0 4 -7 4 -15z m-330 -29 c0 -20 -12 -27
-27 -15 -20 18 -16 38 7 32 11 -3 20 -11 20 -17z m1820 2 c0 -7 -9 -24 -19
-38 -16 -20 -21 -22 -35 -11 -22 19 -20 28 9 35 14 4 25 11 25 16 0 6 5 10 10
10 6 0 10 -6 10 -12z m244 -13 c4 -12 10 -14 25 -5 41 22 71 7 71 -34 0 -10
-52 -36 -73 -36 -4 0 -7 11 -7 25 0 15 -6 25 -14 25 -22 0 -30 -19 -12 -26 20
-8 21 -34 1 -34 -8 0 -15 7 -15 15 0 8 -9 23 -20 32 -20 18 -20 18 2 35 28 22
34 22 42 3z m-1836 -26 c-2 -6 -8 -10 -13 -10 -5 0 -11 4 -13 10 -2 6 4 11 13
11 9 0 15 -5 13 -11z m1237 -9 c0 -7 -6 -15 -12 -17 -8 -3 -13 4 -13 17 0 13
5 20 13 18 6 -3 12 -11 12 -18z m495 -4 c0 -7 -7 -19 -15 -26 -16 -13 -20 -3
-9 24 8 20 24 21 24 2z m-2178 -21 c3 -14 1 -28 -3 -31 -15 -9 -29 6 -29 32 0
32 26 31 32 -1z m2136 -14 c6 -8 12 -18 12 -23 0 -4 -6 -8 -12 -8 -20 -1 -51
-49 -45 -70 3 -11 -1 -21 -10 -24 -23 -9 -35 4 -30 30 3 15 -4 30 -19 43 -13
11 -21 27 -18 35 7 19 36 29 44 16 4 -6 12 1 19 16 10 23 14 24 29 13 9 -7 23
-20 30 -28z m-801 -93 c-3 -8 -6 -5 -6 6 -1 11 2 17 5 13 3 -3 4 -12 1 -19z
m807 -33 c-6 -16 -34 -21 -34 -7 0 13 11 22 26 22 8 0 11 -6 8 -15z m-718 -51
c52 -54 44 -98 -12 -69 -45 23 -82 19 -96 -10 -19 -42 -78 -25 -78 23 0 16 -5
33 -12 40 -9 9 -9 15 -1 23 13 13 36 3 28 -12 -4 -5 -4 -18 0 -28 5 -17 10
-18 35 -9 16 5 32 18 35 29 8 26 33 49 52 49 9 0 31 -16 49 -36z m764 -34 c0
-32 -1 -33 -24 -24 -16 6 -22 35 -9 47 16 17 33 5 33 -23z m108 -2 c8 12 15
11 41 -2 44 -23 39 -38 -11 -34 -41 3 -43 1 -53 -29 -11 -40 -33 -42 -59 -6
-19 26 -19 26 2 44 12 9 22 24 22 31 0 26 12 28 31 5 15 -17 20 -19 27 -9z
m-882 -120 c10 -11 16 -118 6 -118 -5 0 -15 14 -22 30 -15 37 -37 50 -84 50
-38 0 -47 15 -23 39 12 12 110 11 123 -1z m408 -55 c-7 -29 -20 -43 -41 -43
-18 0 -16 21 3 48 22 32 46 29 38 -5z m291 17 c3 -5 1 -10 -4 -10 -6 0 -11 5
-11 10 0 6 2 10 4 10 3 0 8 -4 11 -10z m-838 -64 c2 -24 -2 -40 -15 -53 -11
-10 -25 -29 -32 -42 l-13 -25 -24 28 c-22 26 -53 30 -53 8 0 -5 -18 -21 -40
-36 -22 -14 -40 -22 -40 -17 0 16 75 91 91 91 8 0 19 10 24 23 6 12 19 22 30
23 43 2 47 4 41 20 -3 9 -3 20 0 26 10 16 27 -8 31 -46z m983 -156 c0 -16 -5
-30 -10 -30 -14 0 -24 26 -16 45 10 26 26 16 26 -15z m200 -7 c0 -10 -7 -14
-20 -10 -13 3 -24 -1 -30 -14 -6 -10 -20 -19 -30 -19 -11 0 -21 -4 -21 -10 -1
-5 -2 -15 -3 -22 -2 -23 -26 -20 -26 4 0 13 -5 29 -11 35 -6 6 -9 21 -7 34 3
27 44 37 76 20 15 -8 23 -7 32 4 15 18 40 3 40 -22z m-730 -18 c0 -8 -4 -15
-9 -15 -5 0 -14 7 -21 15 -10 13 -9 15 9 15 12 0 21 -6 21 -15z m40 -90 c0
-12 -6 -27 -13 -33 -10 -9 -16 -3 -26 25 -11 29 -11 37 0 44 18 11 39 -8 39
-36z m-60 -10 c0 -8 -11 -17 -24 -21 -15 -3 -26 -14 -28 -27 -4 -31 -33 -28
-33 3 0 18 9 29 35 42 44 21 50 22 50 3z m-826 -37 c-9 -14 -24 2 -24 25 1 21
1 21 15 3 8 -10 12 -23 9 -28z m609 -47 c6 -23 0 -31 -24 -31 -24 0 -33 18
-19 35 17 21 37 19 43 -4z m957 -1 c0 -5 -6 -10 -14 -10 -8 0 -18 5 -21 10 -3
6 3 10 14 10 12 0 21 -4 21 -10z m-1600 -59 c0 -6 -4 -13 -10 -16 -5 -3 -10 1
-10 9 0 9 5 16 10 16 6 0 10 -4 10 -9z m1048 -43 c-4 -27 -28 -36 -28 -10 0
20 8 32 22 32 5 0 8 -10 6 -22z m-120 -5 c-4 -22 -22 -20 -26 1 -2 10 3 16 13
16 10 0 15 -7 13 -17z m147 -84 c0 -7 -8 -15 -17 -17 -18 -3 -25 18 -11 32 10
10 28 1 28 -15z m-65 -8 c0 -6 -4 -13 -10 -16 -5 -3 -10 1 -10 9 0 9 5 16 10
16 6 0 10 -4 10 -9z m-72 -17 c32 -22 26 -45 -15 -58 -30 -9 -54 34 -33 59 16
19 20 19 48 -1z m-925 -136 c-6 -103 -12 -131 -27 -119 -22 18 -2 181 22 181
5 0 7 -28 5 -62z m967 31 c0 -6 -4 -7 -10 -4 -5 3 -10 11 -10 16 0 6 5 7 10 4
6 -3 10 -11 10 -16z m-80 -4 c0 -8 -7 -15 -15 -15 -8 0 -15 7 -15 15 0 8 7 15
15 15 8 0 15 -7 15 -15z m125 -76 c8 -23 1 -34 -14 -24 -13 8 -15 45 -2 45 5
0 13 -9 16 -21z m423 -32 c7 -15 18 -27 24 -27 6 0 3 -9 -7 -20 -13 -14 -22
-17 -35 -10 -20 11 -39 58 -32 78 7 21 36 9 50 -21z m-408 -47 c0 -13 -5 -18
-15 -14 -12 5 -13 10 -4 20 15 19 19 18 19 -6z m520 -171 c0 -6 -4 -7 -10 -4
-5 3 -10 11 -10 16 0 6 5 7 10 4 6 -3 10 -11 10 -16z"/>
<path d="M5117 8673 c-7 -12 4 -113 14 -113 15 0 23 24 20 60 -2 35 -24 70
-34 53z"/>
<path d="M4180 8355 c-10 -12 -10 -15 4 -15 9 0 16 7 16 15 0 8 -2 15 -4 15
-2 0 -9 -7 -16 -15z"/>
<path d="M5319 7704 c-5 -15 -12 -31 -15 -35 -3 -5 -1 -9 3 -9 8 0 43 52 43
64 0 17 -22 2 -31 -20z"/>
<path d="M4468 7603 c6 -2 18 -2 25 0 6 3 1 5 -13 5 -14 0 -19 -2 -12 -5z"/>
<path d="M5144 7595 c4 -24 16 -30 16 -7 0 12 -4 22 -9 22 -5 0 -8 -7 -7 -15z"/>
<path d="M5270 7560 c-6 -23 -8 -51 -4 -62 6 -21 7 -21 20 -3 16 21 19 91 4
100 -5 3 -14 -13 -20 -35z"/>
<path d="M5560 7331 c0 -6 3 -11 8 -12 74 -9 115 -8 105 2 -16 16 -113 25
-113 10z"/>
<path d="M5483 7071 c8 -21 15 -27 21 -21 12 12 -2 41 -22 48 -8 2 -8 -5 1
-27z"/>
<path d="M5441 7068 c0 -7 4 -22 9 -33 8 -18 9 -17 9 7 1 15 -3 30 -9 33 -5 3
-10 0 -9 -7z"/>
<path d="M5390 7016 c0 -9 5 -16 10 -16 6 0 10 4 10 9 0 6 -4 13 -10 16 -5 3
-10 -1 -10 -9z"/>
<path d="M5485 7009 c-11 -4 -18 -8 -15 -9 23 -7 41 -7 45 0 8 13 -8 18 -30 9z"/>
<path d="M5420 6962 c0 -5 7 -17 15 -28 12 -16 16 -17 24 -4 7 9 6 19 -1 27
-12 14 -38 18 -38 5z"/>
<path d="M3720 6913 c0 -18 5 -33 10 -33 13 0 13 30 0 50 -7 11 -10 7 -10 -17z"/>
<path d="M3780 6828 c0 -23 22 -75 26 -62 3 6 -2 26 -10 45 -9 19 -15 26 -16
17z"/>
<path d="M3938 6630 c-2 -23 0 -46 4 -53 5 -8 8 -4 8 9 0 12 3 36 6 53 4 18 2
31 -4 31 -5 0 -12 -18 -14 -40z"/>
<path d="M3832 6620 c0 -19 2 -27 5 -17 2 9 2 25 0 35 -3 9 -5 1 -5 -18z"/>
<path d="M4030 6531 c0 -43 -4 -60 -15 -65 -8 -3 -15 -12 -15 -20 0 -9 -9 -20
-20 -26 -20 -11 -28 -40 -11 -40 11 0 63 61 81 95 14 26 6 115 -11 115 -5 0
-9 -27 -9 -59z"/>
<path d="M5570 6550 c0 -5 7 -10 15 -10 8 0 15 5 15 10 0 6 -7 10 -15 10 -8 0
-15 -4 -15 -10z"/>
<path d="M3958 6527 c-12 -29 -10 -63 3 -50 6 6 9 23 7 39 -2 24 -4 26 -10 11z"/>
<path d="M5115 6383 c-5 -28 -15 -47 -31 -58 -22 -14 -34 -45 -16 -45 33 2 79
91 64 124 -9 19 -11 17 -17 -21z"/>
<path d="M5137 6297 c-10 -10 -23 -29 -29 -42 -10 -23 -30 -30 -65 -26 -7 1
-13 -5 -13 -14 0 -13 7 -15 34 -10 38 8 55 -7 35 -31 -15 -18 -4 -31 14 -15 8
6 21 9 29 6 15 -6 45 21 35 31 -3 3 -15 0 -27 -6 -32 -17 -34 -7 -10 40 12 23
20 51 18 63 -3 22 -4 22 -21 4z"/>
<path d="M5175 6260 c4 -6 11 -8 16 -5 14 9 11 15 -7 15 -8 0 -12 -5 -9 -10z"/>
<path d="M4215 6226 c-16 -12 -18 -17 -7 -27 15 -16 36 1 30 25 -3 15 -5 15
-23 2z"/>
<path d="M4552 6163 c-26 -5 -51 -43 -28 -43 8 0 18 5 21 11 4 6 13 8 20 5 7
-2 15 4 18 15 3 10 2 18 -1 18 -4 -1 -17 -4 -30 -6z"/>
<path d="M4580 6110 c0 -5 7 -10 16 -10 8 0 12 5 9 10 -3 6 -10 10 -16 10 -5
0 -9 -4 -9 -10z"/>
<path d="M4870 6110 c0 -5 7 -10 15 -10 8 0 15 5 15 10 0 6 -7 10 -15 10 -8 0
-15 -4 -15 -10z"/>
<path d="M5150 6045 c-10 -12 -10 -15 4 -15 9 0 16 7 16 15 0 8 -2 15 -4 15
-2 0 -9 -7 -16 -15z"/>
<path d="M621 5524 c0 -11 3 -14 6 -6 3 7 2 16 -1 19 -3 4 -6 -2 -5 -13z"/>
<path d="M4952 9798 c6 -16 36 -34 44 -26 3 4 4 14 1 23 -7 17 -51 21 -45 3z"/>
<path d="M3146 7028 c-18 -26 -21 -42 -5 -33 6 4 28 -7 50 -25 43 -34 54 -35
42 -3 -8 21 -58 83 -67 83 -3 0 -12 -10 -20 -22z"/>
<path d="M2230 6711 c0 -5 5 -13 10 -16 6 -3 10 -2 10 4 0 5 -4 13 -10 16 -5
3 -10 2 -10 -4z"/>
<path d="M2324 6594 c16 -34 46 -63 46 -45 0 6 -14 25 -31 43 l-30 33 15 -31z"/>
<path d="M2027 6503 c-11 -19 -18 -91 -9 -97 12 -7 23 19 16 38 -3 8 -1 24 5
35 10 18 -2 42 -12 24z"/>
<path d="M2114 6255 c-7 -17 4 -37 17 -30 12 8 12 45 -1 45 -6 0 -13 -7 -16
-15z"/>
<path d="M3450 6031 c0 -20 13 -41 25 -41 21 0 28 19 15 35 -14 17 -40 20 -40
6z"/>
<path d="M3611 5784 c0 -11 3 -14 6 -6 3 7 2 16 -1 19 -3 4 -6 -2 -5 -13z"/>
<path d="M4778 5536 c-11 -26 -5 -56 12 -56 5 0 10 18 10 40 0 46 -6 50 -22
16z"/>
<path d="M5707 5332 c-27 -30 -21 -77 14 -117 34 -38 67 -45 93 -19 17 16 20
41 10 68 -9 22 -21 20 -27 -5 -7 -28 -41 -21 -45 9 -2 15 2 22 13 22 24 0 31
31 10 46 -26 19 -49 17 -68 -4z"/>
<path d="M5598 5315 c2 -14 10 -25 18 -25 7 0 22 -10 34 -22 22 -24 26 -14 10
26 -6 16 -17 26 -30 26 -11 0 -20 5 -20 10 0 6 -4 10 -9 10 -4 0 -6 -11 -3
-25z"/>
<path d="M5570 5246 c0 -9 5 -16 10 -16 6 0 10 4 10 9 0 6 -4 13 -10 16 -5 3
-10 -1 -10 -9z"/>
<path d="M2232 4943 c-6 -21 -17 -60 -25 -88 -8 -27 -18 -70 -21 -95 l-6 -45
16 35 c9 19 21 60 26 90 6 30 16 74 23 98 7 23 9 42 5 42 -4 0 -12 -17 -18
-37z"/>
<path d="M2390 4961 c0 -6 4 -13 10 -16 6 -3 7 1 4 9 -7 18 -14 21 -14 7z"/>
<path d="M2480 4794 c0 -11 38 -74 45 -74 14 0 2 32 -20 56 -14 15 -25 23 -25
18z"/>
<path d="M2610 4711 c0 -17 80 -154 86 -148 3 2 -5 24 -16 48 -11 24 -20 51
-20 59 -1 17 -50 57 -50 41z"/>
<path d="M2156 4641 c-3 -4 -8 -35 -11 -67 -8 -73 10 -53 20 24 6 49 3 64 -9
43z"/>
<path d="M2731 4489 c0 -9 6 -22 14 -29 10 -9 15 -9 15 -1 0 6 -4 11 -9 11 -5
0 -12 8 -14 18 -4 14 -5 14 -6 1z"/>
<path d="M2117 4464 c-4 -4 -7 -17 -7 -28 1 -19 1 -20 11 -3 11 19 8 43 -4 31z"/>
<path d="M2101 4384 c0 -11 3 -14 6 -6 3 7 2 16 -1 19 -3 4 -6 -2 -5 -13z"/>
<path d="M4112 4378 c6 -16 55 -34 65 -24 10 10 -26 36 -50 36 -10 0 -17 -5
-15 -12z"/>
<path d="M2080 4350 c0 -5 5 -10 10 -10 6 0 10 5 10 10 0 6 -4 10 -10 10 -5 0
-10 -4 -10 -10z"/>
<path d="M3770 4304 c-63 -43 -96 -63 -205 -122 -27 -14 -52 -29 -55 -32 -3
-3 -18 -11 -34 -18 -27 -12 -31 -11 -47 9 -9 12 -21 19 -27 15 -6 -4 -21 -1
-32 6 -19 12 -23 10 -41 -14 -24 -33 -54 -36 -71 -8 -19 29 -50 27 -43 -3 9
-33 -13 -47 -71 -47 -27 0 -82 -1 -123 -3 -70 -2 -74 -1 -83 23 -5 13 -15 28
-21 32 -7 5 -1 8 16 8 15 0 27 5 27 10 0 6 11 10 25 10 15 0 25 6 25 14 0 11
-9 13 -34 9 -19 -3 -36 -1 -40 6 -12 19 -70 13 -89 -9 -19 -23 -22 -47 -7 -52
6 -2 13 -27 17 -56 3 -28 10 -52 14 -52 5 0 9 -7 9 -15 0 -17 35 -21 45 -5 3
5 20 8 38 6 43 -5 177 21 252 50 34 13 83 29 110 35 28 7 57 19 67 27 11 9 18
10 23 2 7 -11 -14 -44 -23 -36 -2 3 -18 -2 -34 -10 -21 -11 -27 -19 -20 -26
12 -12 124 41 262 122 47 28 103 56 125 62 47 15 140 75 140 91 0 24 -32 14
-95 -29z"/>
<path d="M2800 4326 c0 -8 11 -36 25 -62 25 -47 25 -47 25 -15 0 35 -25 91
-40 91 -6 0 -10 -7 -10 -14z"/>
<path d="M3955 4260 c3 -5 14 -10 23 -10 15 0 15 2 2 10 -20 13 -33 13 -25 0z"/>
<path d="M3133 4235 c-18 -8 -33 -18 -33 -23 0 -18 74 -20 93 -4 42 37 3 55
-60 27z"/>
<path d="M4020 4235 c33 -19 50 -18 26 0 -11 8 -27 15 -35 15 -10 -1 -7 -6 9
-15z"/>
<path d="M3070 4190 c0 -5 5 -10 10 -10 6 0 10 5 10 10 0 6 -4 10 -10 10 -5 0
-10 -4 -10 -10z"/>
<path d="M2025 4150 c-4 -23 -5 -44 -2 -46 3 -3 8 13 12 36 4 23 5 44 2 46 -3
3 -8 -13 -12 -36z"/>
<path d="M4153 4174 c16 -8 31 -13 35 -10 8 8 1 12 -33 20 l-30 6 28 -16z"/>
<path d="M1993 3915 c0 -38 2 -53 4 -32 2 20 2 52 0 70 -2 17 -4 1 -4 -38z"/>
<path d="M4650 3288 c0 -16 4 -28 9 -28 5 0 12 -14 16 -30 4 -17 15 -35 25
-40 17 -9 19 -7 18 17 0 16 2 39 6 53 3 14 4 19 0 13 -6 -14 -44 -18 -44 -5 0
5 -7 17 -15 28 -14 18 -14 18 -15 -8z"/>
<path d="M8537 2293 c-14 -14 -7 -61 11 -67 9 -3 22 -8 28 -11 17 -9 12 58 -6
72 -17 14 -24 16 -33 6z"/>
<path d="M8950 2086 c0 -8 5 -18 10 -21 6 -3 10 3 10 14 0 12 -4 21 -10 21 -5
0 -10 -6 -10 -14z"/>
<path d="M8903 2061 c-10 -16 -9 -20 3 -25 23 -9 24 -8 24 19 0 30 -11 32 -27
6z"/>
<path d="M7996 1951 c-8 -12 3 -41 15 -41 12 0 12 37 0 45 -5 3 -12 1 -15 -4z"/>
<path d="M7956 1903 c-8 -9 -46 -92 -46 -103 0 -4 8 -10 18 -14 9 -3 22 -8 28
-11 6 -3 14 1 18 10 4 12 1 15 -13 10 -21 -6 -34 14 -21 34 5 9 16 11 30 6 22
-7 23 -5 16 26 -7 37 -19 53 -30 42z"/>
<path d="M8600 1891 c0 -5 7 -11 15 -15 9 -3 15 0 15 9 0 8 -7 15 -15 15 -8 0
-15 -4 -15 -9z"/>
<path d="M9290 1810 l-24 -6 24 -24 c22 -22 25 -23 28 -7 6 32 -2 43 -28 37z"/>
<path d="M8030 1741 c0 -5 8 -17 18 -27 16 -17 17 -17 20 1 2 9 -2 21 -10 26
-17 11 -28 11 -28 0z"/>
<path d="M9304 1639 c-3 -6 -1 -16 5 -22 8 -8 11 -5 11 11 0 24 -5 28 -16 11z"/>
<path d="M3900 1606 c0 -8 5 -18 10 -21 6 -3 10 1 10 9 0 8 -4 18 -10 21 -5 3
-10 -1 -10 -9z"/>
<path d="M4655 1283 c4 -10 12 -37 17 -60 5 -24 14 -43 19 -43 11 0 3 42 -17
88 -15 33 -32 46 -19 15z"/>
<path d="M4707 1163 c-4 -6 8 -48 25 -93 18 -45 34 -77 36 -72 2 6 -4 27 -14
49 -9 21 -22 58 -28 83 -7 24 -15 39 -19 33z"/>
<path d="M4770 973 c0 -4 5 -15 10 -23 8 -13 10 -13 10 2 0 9 -4 20 -10 23 -5
3 -10 3 -10 -2z"/>
<path d="M7080 940 c0 -24 25 -27 34 -4 9 23 8 24 -14 24 -13 0 -20 -7 -20
-20z"/>
<path d="M4791 923 c0 -4 4 -17 9 -28 8 -19 9 -19 9 2 1 12 -3 25 -9 28 -5 3
-10 3 -9 -2z"/>
<path d="M4831 825 c-1 -21 15 -53 22 -45 2 3 -2 19 -9 35 -10 23 -13 25 -13
10z"/>
<path d="M4866 738 c13 -43 23 -68 28 -68 3 0 -2 20 -11 45 -15 45 -31 65 -17
23z"/>
<path d="M4901 645 c0 -11 4 -27 9 -35 9 -13 10 -13 9 0 0 8 -4 24 -9 35 l-9
20 0 -20z"/>
<path d="M4115 631 c21 -68 34 -102 30 -81 -3 14 -8 42 -11 63 -4 20 -11 37
-16 37 -5 0 -7 -8 -3 -19z"/>
<path d="M6840 638 c0 -6 9 -41 20 -77 10 -36 26 -93 35 -126 9 -33 20 -69 25
-80 8 -18 9 -17 9 7 2 67 -60 288 -80 288 -5 0 -9 -5 -9 -12z"/>
<path d="M4931 570 c0 -8 6 -28 14 -45 17 -39 18 -21 0 25 -7 19 -14 28 -14
20z"/>
<path d="M401 494 c0 -11 3 -14 6 -6 3 7 2 16 -1 19 -3 4 -6 -2 -5 -13z"/>
<path d="M4975 451 c5 -34 12 -49 18 -40 2 2 -3 20 -10 39 l-14 35 6 -34z"/>
<path d="M400 415 c0 -8 5 -15 10 -15 6 0 10 7 10 15 0 8 -4 15 -10 15 -5 0
-10 -7 -10 -15z"/>
<path d="M5021 339 c-2 -11 32 -104 41 -114 7 -7 8 -1 3 15 -9 30 -43 107 -44
99z"/>
<path d="M6653 289 c3 -13 11 -52 18 -86 6 -35 18 -71 25 -80 13 -16 14 -13
11 27 -1 25 -11 57 -20 70 -9 13 -17 37 -17 52 0 15 -5 30 -11 34 -8 5 -10 0
-6 -17z"/>
<path d="M6940 241 c0 -12 5 -21 10 -21 6 0 10 6 10 14 0 8 -4 18 -10 21 -5 3
-10 -3 -10 -14z"/>
<path d="M5080 158 c0 -7 5 -20 10 -28 8 -12 10 -11 10 7 0 12 -4 25 -10 28
-5 3 -10 0 -10 -7z"/>
<path d="M5115 70 c13 -42 24 -70 29 -70 8 0 -15 74 -26 85 -7 7 -8 2 -3 -15z"/>
</g>
</svg>
